<?xml version="1.0" encoding="UTF-8" standalone="no"?>
<svg
   version="1.0"
   width="144.000000pt"
   height="464.000000pt"
   viewBox="0 0 144.000000 464.000000"
   preserveAspectRatio="xMidYMid meet"
   id="svg1"
   sodipodi:docname="10.svg"
   inkscape:version="1.4.3 (0d15f75, 2025-12-25)"
   xmlns:inkscape="http://www.inkscape.org/namespaces/inkscape"
   xmlns:sodipodi="http://sodipodi.sourceforge.net/DTD/sodipodi-0.dtd"
   xmlns="http://www.w3.org/2000/svg"
   xmlns:svg="http://www.w3.org/2000/svg">
  <defs
     id="defs1" />
  <sodipodi:namedview
     id="namedview1"
     pagecolor="#ffffff"
     bordercolor="#000000"
     borderopacity="0.25"
     inkscape:showpageshadow="2"
     inkscape:pageopacity="0.0"
     inkscape:pagecheckerboard="0"
     inkscape:deskcolor="#d1d1d1"
     inkscape:document-units="pt"
     inkscape:zoom="1.2494612"
     inkscape:cx="95.641225"
     inkscape:cy="309.33333"
     inkscape:window-width="1920"
     inkscape:window-height="991"
     inkscape:window-x="-9"
     inkscape:window-y="-9"
     inkscape:window-maximized="1"
     inkscape:current-layer="svg1" />
  <g
     transform="matrix(-0.1,0,0,-0.1,151.24528,464)"
     fill="#000000"
     stroke="none"
     id="g1">
    <path
       d="m 600,4540 c -161,-23 -211,-42 -272,-103 -65,-65 -75,-100 -108,-387 -11,-97 -12,-496 0,-580 24,-181 31,-227 39,-250 5,-14 16,-54 26,-90 9,-36 21,-75 25,-87 6,-14 5,-23 -3,-26 -14,-4 -11,-150 4,-200 6,-18 14,-81 20,-142 9,-106 23,-250 33,-327 2,-20 8,-42 12,-49 4,-6 10,-84 15,-173 10,-208 26,-425 40,-551 7,-66 10,-311 8,-720 -3,-576 -2,-624 15,-670 21,-58 49,-84 89,-85 35,0 141,97 172,157 10,21 25,45 31,53 19,23 74,137 74,153 0,8 6,20 14,26 8,6 16,24 20,39 3,15 26,106 52,202 25,96 50,198 54,225 5,28 18,100 30,160 46,240 80,456 80,510 0,17 6,62 14,100 40,190 59,360 76,655 12,215 22,307 45,381 13,44 15,103 14,326 0,149 2,277 6,283 4,6 13,43 20,83 8,40 18,92 23,117 26,124 34,220 33,440 0,385 -29,467 -179,517 -53,18 -424,27 -522,13 z m 500,-50 c 125,-31 159,-125 167,-460 4,-155 2,-209 -11,-263 -9,-38 -16,-82 -16,-100 0,-31 -10,-92 -37,-226 -62,-306 -209,-588 -362,-694 -41,-29 -54,-32 -116,-32 -64,0 -74,3 -125,37 -75,51 -177,172 -217,258 -78,166 -93,222 -118,417 -17,139 -20,507 -5,623 5,41 14,111 19,155 16,121 27,150 80,203 59,59 118,80 261,92 130,11 419,5 480,-10 z m 74,-1699 c -24,-85 -53,-354 -54,-505 0,-136 -15,-252 -58,-456 -11,-52 -23,-140 -27,-195 -3,-55 -13,-131 -21,-170 -8,-38 -22,-112 -30,-165 C 956,1125 929,988 912,925 906,903 894,849 885,805 830,540 720,299 603,185 494,79 449,227 471,627 c 12,216 5,822 -12,1058 -6,77 -12,206 -14,287 -2,80 -8,155 -14,166 -6,12 -11,60 -11,107 0,47 -5,95 -11,106 -12,22 -36,194 -49,349 -4,58 -13,121 -19,140 -6,19 -11,66 -10,105 0,58 2,67 12,51 94,-152 190,-259 262,-295 62,-31 130,-37 198,-17 47,14 69,28 120,80 73,73 102,111 140,180 38,69 97,195 97,206 0,5 6,21 13,37 21,48 22,-323 1,-396 z"
       id="path1" />
  </g>
</svg>
