<?xml version="1.0" encoding="UTF-8" standalone="no"?>
<svg
   version="1.0"
   width="169.000000pt"
   height="506.000000pt"
   viewBox="0 0 169.000000 506.000000"
   preserveAspectRatio="xMidYMid meet"
   id="svg1"
   sodipodi:docname="11.svg"
   inkscape:version="1.4.3 (0d15f75, 2025-12-25)"
   xmlns:inkscape="http://www.inkscape.org/namespaces/inkscape"
   xmlns:sodipodi="http://sodipodi.sourceforge.net/DTD/sodipodi-0.dtd"
   xmlns="http://www.w3.org/2000/svg"
   xmlns:svg="http://www.w3.org/2000/svg">
  <defs
     id="defs1" />
  <sodipodi:namedview
     id="namedview1"
     pagecolor="#ffffff"
     bordercolor="#000000"
     borderopacity="0.25"
     inkscape:showpageshadow="2"
     inkscape:pageopacity="0.0"
     inkscape:pagecheckerboard="0"
     inkscape:deskcolor="#d1d1d1"
     inkscape:document-units="pt"
     inkscape:zoom="1.145751"
     inkscape:cx="113.0263"
     inkscape:cy="338.20612"
     inkscape:window-width="1920"
     inkscape:window-height="991"
     inkscape:window-x="-9"
     inkscape:window-y="-9"
     inkscape:window-maximized="1"
     inkscape:current-layer="svg1" />
  <g
     transform="matrix(-0.1,0,0,-0.1,169.10178,506)"
     fill="#000000"
     stroke="none"
     id="g1">
    <path
       d="m 835,4945 c -27,-6 -68,-21 -90,-33 C 672,4875 488,4672 304,4425 135,4200 109,4148 97,4014 c -11,-114 39,-566 71,-659 30,-83 49,-170 39,-177 -7,-4 -7,-46 1,-135 7,-70 14,-177 17,-238 3,-60 10,-128 15,-150 5,-22 10,-74 10,-115 0,-45 8,-101 20,-140 17,-56 20,-97 21,-310 1,-135 -2,-305 -6,-379 -6,-109 -5,-135 6,-142 12,-7 13,-70 11,-366 -2,-197 -8,-398 -13,-448 -5,-49 -12,-171 -16,-270 -4,-148 -3,-191 11,-244 30,-115 72,-147 145,-107 76,41 156,128 249,271 36,55 73,111 82,125 9,14 33,58 53,98 20,41 40,79 45,85 4,7 23,46 41,87 19,41 44,98 56,125 12,28 32,78 44,113 12,34 25,70 30,80 10,19 29,76 56,167 10,33 22,71 28,85 15,39 52,182 67,260 4,25 13,56 18,70 19,45 76,306 97,438 8,48 23,137 33,197 11,61 25,151 32,200 7,50 19,124 26,165 8,41 14,95 14,120 0,25 5,61 10,80 32,108 55,490 31,505 -11,6 -3,70 11,98 10,20 21,57 69,237 44,162 48,181 65,310 8,66 12,140 8,175 -6,62 -37,164 -53,174 -4,3 -18,24 -29,46 -56,112 -312,397 -412,460 -46,29 -135,55 -185,54 -16,-1 -52,-7 -80,-14 z m 241,-76 c 122,-79 360,-352 426,-489 51,-107 52,-112 51,-218 -1,-57 -8,-134 -16,-170 -9,-37 -23,-103 -32,-147 -17,-83 -41,-176 -54,-210 -5,-11 -15,-45 -24,-75 -40,-139 -49,-167 -62,-195 -8,-16 -26,-62 -40,-101 -67,-184 -261,-385 -445,-461 -64,-26 -179,-31 -245,-10 -119,38 -264,176 -335,317 -17,36 -35,72 -39,80 -5,8 -18,51 -30,95 -12,44 -26,94 -32,111 -5,17 -9,46 -9,66 0,20 -6,58 -14,84 -18,62 -46,315 -46,415 0,138 32,204 213,447 56,75 142,184 191,242 199,232 267,275 416,263 54,-4 76,-11 126,-44 z m 334,-1764 c -7,-55 -17,-118 -23,-140 -9,-36 -19,-108 -32,-217 -2,-21 -9,-73 -15,-115 -6,-43 -16,-109 -21,-148 -5,-38 -20,-131 -34,-205 -14,-74 -30,-162 -36,-195 -15,-85 -38,-193 -50,-240 -11,-42 -21,-86 -38,-170 -18,-85 -44,-179 -58,-205 -7,-14 -13,-32 -13,-41 0,-8 -6,-35 -14,-60 -7,-24 -19,-64 -27,-89 -7,-25 -18,-56 -25,-70 -8,-14 -28,-68 -45,-120 -17,-52 -35,-100 -40,-105 -4,-6 -17,-35 -29,-65 C 887,861 810,705 752,600 646,406 479,194 413,169 c -99,-37 -124,87 -99,492 25,418 28,648 16,1189 -10,438 -14,524 -29,575 -11,38 -15,70 -10,88 5,17 0,65 -12,125 -11,55 -24,175 -29,277 -5,100 -12,189 -16,199 -16,43 16,2 54,-67 42,-76 138,-182 209,-231 162,-110 368,-100 542,26 67,49 217,201 226,228 4,11 10,20 14,20 9,0 80,139 101,195 34,91 35,91 38,3 2,-46 -2,-128 -8,-183 z"
       id="path1" />
  </g>
</svg>
