<?xml version="1.0" encoding="UTF-8" standalone="no"?>
<svg
   version="1.0"
   width="188.000000pt"
   height="438.000000pt"
   viewBox="0 0 188.000000 438.000000"
   preserveAspectRatio="xMidYMid meet"
   id="svg1"
   sodipodi:docname="13.svg"
   inkscape:version="1.4.3 (0d15f75, 2025-12-25)"
   xmlns:inkscape="http://www.inkscape.org/namespaces/inkscape"
   xmlns:sodipodi="http://sodipodi.sourceforge.net/DTD/sodipodi-0.dtd"
   xmlns="http://www.w3.org/2000/svg"
   xmlns:svg="http://www.w3.org/2000/svg">
  <defs
     id="defs1" />
  <sodipodi:namedview
     id="namedview1"
     pagecolor="#ffffff"
     bordercolor="#000000"
     borderopacity="0.25"
     inkscape:showpageshadow="2"
     inkscape:pageopacity="0.0"
     inkscape:pagecheckerboard="0"
     inkscape:deskcolor="#d1d1d1"
     inkscape:document-units="pt"
     inkscape:zoom="1.3236301"
     inkscape:cx="125.03493"
     inkscape:cy="300.31048"
     inkscape:window-width="1920"
     inkscape:window-height="991"
     inkscape:window-x="-9"
     inkscape:window-y="-9"
     inkscape:window-maximized="1"
     inkscape:current-layer="svg1" />
  <g
     transform="matrix(-0.1,0,0,-0.1,194.73688,438)"
     fill="#000000"
     stroke="none"
     id="g1">
    <path
       d="m 944,4321 c -62,-16 -535,-262 -598,-311 -69,-53 -87,-79 -140,-203 -21,-50 -22,-204 -1,-254 8,-19 15,-47 15,-62 0,-15 4,-31 9,-36 4,-6 16,-41 25,-80 10,-38 23,-83 31,-100 101,-232 98,-225 96,-317 -1,-49 4,-121 13,-165 9,-43 20,-114 26,-158 5,-44 20,-116 34,-160 26,-87 46,-224 46,-320 0,-33 7,-85 15,-115 8,-30 19,-134 25,-230 5,-96 19,-231 31,-300 24,-147 37,-350 44,-740 5,-274 15,-361 45,-420 4,-9 10,-29 14,-45 9,-41 56,-107 86,-122 56,-28 139,-7 199,50 32,31 151,181 151,191 0,2 14,34 30,69 17,36 30,71 30,79 0,8 4,18 8,23 4,6 16,37 26,70 10,33 29,92 43,130 13,39 34,108 44,155 11,47 24,92 28,100 7,13 32,113 86,337 8,34 15,71 15,82 0,11 6,35 14,53 15,35 35,135 42,203 4,47 31,195 44,245 34,133 50,217 50,263 0,61 24,231 45,325 8,35 15,96 15,136 0,39 7,99 16,131 12,46 15,100 13,225 -3,160 5,217 34,257 8,11 15,48 43,213 26,157 28,222 9,302 -10,39 -24,83 -31,97 -20,39 -96,127 -124,144 -14,9 -34,23 -45,32 -50,41 -199,131 -293,177 -97,47 -109,51 -190,54 -48,2 -101,0 -118,-5 z m 221,-54 c 17,-9 48,-24 70,-33 22,-10 67,-34 100,-54 33,-20 67,-39 75,-43 8,-4 44,-27 80,-53 199,-140 244,-236 221,-471 -7,-65 -18,-138 -26,-163 -8,-25 -19,-65 -26,-90 -60,-233 -157,-403 -331,-586 -141,-147 -229,-194 -362,-194 -101,1 -206,48 -286,129 -125,126 -282,372 -333,521 -9,25 -25,70 -37,100 -23,63 -53,183 -71,287 -13,76 -3,155 28,232 19,48 79,118 116,138 18,8 34,19 37,24 3,5 91,52 195,105 287,146 308,156 335,165 38,13 181,3 215,-14 z m 450,-1418 c -8,-38 -15,-99 -15,-136 0,-37 -7,-97 -16,-133 -19,-83 -33,-178 -43,-310 -5,-64 -21,-149 -40,-216 -17,-61 -36,-144 -41,-185 -24,-170 -29,-200 -60,-319 -18,-69 -36,-154 -40,-190 -5,-36 -16,-90 -25,-120 -9,-30 -28,-98 -41,-150 C 1269,994 1245,916 1184,735 1100,484 1075,431 993,333 885,204 813,176 757,242 c -42,50 -41,49 -59,113 -34,124 -41,197 -49,465 -12,428 -36,786 -64,955 -3,17 -12,84 -19,150 -8,66 -19,145 -25,175 -6,30 -15,114 -20,185 -7,88 -19,157 -36,215 -15,47 -31,119 -36,160 -5,41 -16,109 -24,151 -8,42 -15,103 -15,135 l 1,59 21,-40 c 40,-76 178,-250 240,-303 35,-30 96,-70 136,-88 66,-31 82,-34 162,-34 83,0 96,3 174,39 66,30 102,56 166,117 82,78 209,236 251,311 11,21 31,55 42,77 l 22,39 3,-104 c 2,-66 -3,-127 -13,-170 z"
       id="path1" />
  </g>
</svg>
