<?xml version="1.0" encoding="UTF-8" standalone="no"?>
<svg
   version="1.0"
   width="259.000000pt"
   height="383.000000pt"
   viewBox="0 0 259.000000 383.000000"
   preserveAspectRatio="xMidYMid meet"
   id="svg3"
   sodipodi:docname="16.svg"
   inkscape:version="1.4.3 (0d15f75, 2025-12-25)"
   xmlns:inkscape="http://www.inkscape.org/namespaces/inkscape"
   xmlns:sodipodi="http://sodipodi.sourceforge.net/DTD/sodipodi-0.dtd"
   xmlns="http://www.w3.org/2000/svg"
   xmlns:svg="http://www.w3.org/2000/svg">
  <defs
     id="defs3" />
  <sodipodi:namedview
     id="namedview3"
     pagecolor="#ffffff"
     bordercolor="#000000"
     borderopacity="0.25"
     inkscape:showpageshadow="2"
     inkscape:pageopacity="0.0"
     inkscape:pagecheckerboard="0"
     inkscape:deskcolor="#d1d1d1"
     inkscape:document-units="pt"
     inkscape:zoom="1.5137076"
     inkscape:cx="172.75464"
     inkscape:cy="255.33333"
     inkscape:window-width="1920"
     inkscape:window-height="991"
     inkscape:window-x="-9"
     inkscape:window-y="-9"
     inkscape:window-maximized="1"
     inkscape:current-layer="svg3" />
  <g
     transform="matrix(-0.1,0,0,-0.1,263.41225,383)"
     fill="#000000"
     stroke="none"
     id="g3">
    <path
       d="m 1995,3630 c -11,-5 -30,-9 -42,-9 -57,-2 -229,-100 -308,-176 -26,-25 -49,-45 -53,-45 -4,0 -18,15 -31,33 -33,44 -96,90 -156,113 -73,28 -242,26 -306,-4 -52,-24 -113,-86 -153,-155 -16,-26 -32,-47 -37,-47 -6,0 -36,17 -67,38 -97,64 -130,76 -208,77 -62,0 -75,-3 -106,-27 -23,-18 -48,-53 -69,-95 -31,-66 -32,-72 -36,-233 -5,-182 6,-312 35,-437 10,-46 15,-83 10,-83 -4,0 -8,-33 -8,-72 0,-40 -4,-100 -10,-133 -5,-33 -14,-148 -19,-255 -7,-132 -18,-234 -35,-315 -13,-66 -27,-152 -31,-192 -3,-39 -17,-106 -31,-149 -27,-88 -30,-114 -10,-114 18,0 63,145 71,235 4,39 18,124 31,190 14,67 27,173 30,240 2,66 10,172 15,235 6,63 14,156 18,205 l 6,90 31,-45 c 18,-25 42,-55 55,-67 35,-32 117,-72 179,-89 64,-16 279,-18 385,-3 39,5 97,13 130,17 33,4 65,11 72,15 25,16 372,36 528,30 175,-6 283,5 343,36 96,50 236,227 267,339 7,26 23,72 36,102 19,48 22,74 23,215 1,168 -3,189 -55,295 -58,119 -164,209 -279,236 -62,15 -185,17 -215,4 z m 268,-69 c 113,-55 184,-147 231,-298 22,-72 22,-258 -1,-327 -61,-190 -115,-296 -191,-378 -20,-22 -64,-56 -97,-76 l -60,-35 -340,-9 c -187,-4 -371,-12 -410,-16 -126,-17 -229,-33 -275,-44 -92,-22 -229,-22 -312,0 -157,42 -221,88 -277,198 -43,84 -61,197 -68,407 -7,229 8,320 67,388 37,43 38,44 101,44 92,0 162,-41 307,-178 51,-47 53,-48 46,-21 -4,16 -14,41 -23,56 -15,27 -14,31 14,84 17,30 49,73 73,95 65,61 112,79 210,79 72,0 90,-4 147,-31 67,-33 116,-74 145,-122 17,-27 17,-30 -6,-73 -25,-46 -32,-94 -14,-94 6,0 10,5 10,11 0,20 79,132 131,186 55,57 131,110 199,137 25,10 55,23 66,28 45,21 92,27 176,24 72,-3 96,-8 151,-35 z"
       id="path1" />
    <path
       d="m 2450,2665 c 0,-13 -14,-75 -30,-137 -17,-62 -49,-182 -71,-267 -21,-84 -55,-214 -75,-290 -20,-75 -45,-172 -56,-216 -22,-89 -74,-269 -88,-300 -4,-11 -19,-45 -33,-75 -13,-31 -30,-79 -37,-108 -6,-29 -16,-55 -21,-58 -5,-3 -9,-12 -9,-20 0,-9 -16,-48 -37,-87 -20,-40 -47,-94 -60,-120 C 1881,882 1739,690 1648,602 1538,495 1409,410 1280,357 c -82,-33 -107,-40 -226,-68 -143,-34 -140,37 11,261 173,258 263,554 278,915 6,144 0,180 -27,180 -23,0 -40,-33 -116,-220 -34,-82 -69,-163 -78,-180 -8,-16 -19,-37 -22,-45 C 1046,1080 956,915 901,835 878,802 848,758 835,738 792,674 588,476 510,425 294,281 181,269 136,385 c -18,45 -23,309 -7,319 4,3 11,23 15,45 3,22 13,54 23,73 9,18 21,41 26,52 14,30 37,109 37,132 0,12 7,27 15,34 8,7 15,22 15,34 0,12 7,31 15,42 16,21 20,74 6,74 -11,0 -21,-25 -21,-50 0,-9 -7,-23 -15,-30 -8,-7 -15,-27 -15,-46 0,-18 -4,-36 -10,-39 -5,-3 -10,-19 -10,-34 0,-15 -9,-38 -20,-51 -11,-13 -20,-30 -20,-40 0,-9 -4,-20 -9,-25 -4,-6 -15,-32 -24,-60 -8,-27 -22,-73 -31,-101 -11,-35 -16,-89 -16,-169 0,-134 17,-199 63,-243 26,-25 35,-27 100,-26 64,1 81,6 152,44 44,23 87,49 96,56 8,8 20,14 26,14 5,0 18,9 29,21 10,12 30,27 44,34 30,16 208,195 244,245 68,94 157,232 189,292 20,37 41,75 46,85 11,18 86,181 114,243 8,19 26,60 39,90 14,30 28,68 32,85 8,33 23,55 38,55 10,0 5,-151 -7,-220 -3,-19 -13,-78 -21,-130 -18,-106 -57,-254 -83,-315 -10,-22 -26,-60 -36,-85 -11,-25 -29,-62 -42,-82 -13,-21 -23,-42 -23,-46 0,-5 -13,-27 -28,-48 -178,-247 -198,-364 -62,-364 49,0 164,23 205,40 11,5 56,24 100,41 44,18 105,48 135,66 30,19 64,39 75,46 75,45 321,301 343,357 3,8 16,29 28,45 12,17 45,75 74,130 28,55 56,104 61,110 5,5 9,20 9,33 0,13 7,30 15,38 8,9 15,24 15,33 0,10 6,24 14,30 8,7 18,27 22,44 3,17 21,64 39,103 39,84 81,233 196,679 22,88 65,251 95,363 56,210 66,282 39,282 -9,0 -15,-9 -15,-25 z"
       id="path2" />
    <path
       d="m 297,1257 c -11,-29 -9,-53 4,-40 6,6 9,21 7,34 -3,21 -4,22 -11,6 z"
       id="path3" />
  </g>
</svg>
