<?xml version="1.0" standalone="no"?>
<!DOCTYPE svg PUBLIC "-//W3C//DTD SVG 20010904//EN"
 "http://www.w3.org/TR/2001/REC-SVG-20010904/DTD/svg10.dtd">
<svg version="1.0" xmlns="http://www.w3.org/2000/svg"
 width="225.000000pt" height="398.000000pt" viewBox="0 0 225.000000 398.000000"
 preserveAspectRatio="xMidYMid meet">

<g transform="translate(0.000000,398.000000) scale(0.100000,-0.100000)"
fill="#000000" stroke="none">
<path d="M1680 3873 c-25 -2 -49 -8 -54 -14 -6 -5 -18 -9 -28 -9 -25 0 -154
-64 -212 -105 -27 -20 -79 -62 -116 -95 -37 -33 -71 -60 -74 -60 -4 0 -30 24
-59 53 -171 169 -410 245 -595 188 -130 -41 -192 -81 -279 -182 -103 -120
-150 -230 -188 -441 -22 -125 -20 -148 45 -388 5 -19 10 -68 10 -109 0 -40 6
-99 14 -130 8 -31 17 -85 20 -121 4 -36 16 -117 26 -180 11 -63 22 -187 25
-275 3 -88 8 -173 10 -190 9 -53 -23 -477 -45 -603 -11 -68 -32 -165 -46 -215
-14 -51 -28 -103 -30 -117 -3 -14 -16 -47 -29 -75 -26 -53 -45 -206 -45 -354
0 -82 26 -152 68 -179 39 -25 113 -11 215 43 129 67 192 118 347 284 40 42
132 168 184 252 54 85 190 358 222 444 15 39 35 88 44 110 10 22 26 64 35 93
17 51 31 61 46 31 11 -22 29 -178 29 -256 0 -85 -17 -266 -30 -308 -5 -16 -20
-75 -35 -130 -14 -55 -35 -120 -46 -145 -24 -53 -28 -63 -63 -155 -34 -93 -37
-215 -5 -272 38 -70 50 -76 129 -75 62 1 83 7 158 43 122 59 200 125 272 231
33 48 60 90 60 93 0 3 27 60 59 128 32 67 68 151 80 187 11 36 34 105 51 154
16 49 30 100 30 114 0 14 9 60 19 101 60 238 74 390 71 751 -2 217 12 358 52
510 11 41 26 102 34 135 9 33 22 79 31 103 10 28 14 57 10 86 -5 36 -1 57 20
103 33 75 49 132 74 273 57 316 -26 573 -211 652 -46 20 -203 31 -300 21z
m263 -50 c97 -34 176 -138 213 -280 8 -30 14 -100 14 -155 0 -101 -24 -265
-41 -283 -5 -5 -9 -18 -9 -30 0 -23 -25 -102 -49 -155 -49 -107 -158 -205
-291 -261 -126 -53 -182 -61 -430 -64 -156 -2 -248 -7 -300 -18 -163 -34 -490
-30 -611 7 -112 34 -187 93 -247 193 -49 84 -69 149 -78 256 -11 143 14 293
71 415 14 29 25 54 25 57 0 8 48 75 91 126 39 46 106 98 178 136 36 20 146 43
200 43 74 0 191 -33 267 -76 78 -44 200 -144 209 -173 3 -11 -3 -40 -15 -65
-11 -25 -20 -48 -20 -51 0 -4 -7 -13 -15 -21 -18 -19 -20 -44 -2 -44 7 0 23
23 36 52 45 103 277 304 416 360 128 51 291 64 388 31z m108 -1085 c-85 -270
-113 -450 -112 -723 3 -352 -14 -539 -64 -720 -20 -75 -33 -134 -40 -187 -3
-26 -10 -50 -16 -53 -5 -4 -9 -15 -9 -27 0 -11 -6 -32 -14 -46 -7 -15 -22 -54
-32 -87 -10 -33 -32 -92 -50 -131 -17 -39 -37 -88 -44 -110 -27 -82 -177 -296
-219 -312 -9 -3 -32 -18 -51 -32 -19 -15 -55 -35 -80 -44 -25 -10 -60 -24 -78
-32 -123 -53 -196 28 -178 199 3 33 10 65 15 71 5 6 12 27 16 46 4 19 11 40
15 45 8 10 46 112 80 220 11 33 24 74 30 90 19 60 42 318 36 410 -16 239 -35
325 -71 325 -19 0 -52 -45 -61 -83 -3 -18 -17 -54 -30 -81 -13 -28 -24 -54
-24 -59 0 -16 -108 -264 -157 -362 -25 -49 -68 -128 -96 -175 -47 -78 -66
-105 -145 -210 -56 -74 -198 -211 -266 -257 -114 -77 -223 -121 -272 -109 -12
3 -33 23 -46 43 -21 35 -23 47 -21 169 1 93 6 142 17 169 9 21 16 50 16 65 0
15 10 40 22 55 13 16 25 51 29 79 4 28 17 89 29 136 11 47 25 121 31 165 5 44
17 106 25 139 12 47 15 126 15 395 0 185 -4 377 -9 426 -17 155 -52 387 -67
455 -8 36 -15 83 -15 105 l1 40 17 -25 c66 -99 179 -165 327 -193 81 -16 433
-15 515 1 36 6 88 16 115 21 28 6 138 10 246 10 155 1 214 5 285 21 126 27
252 92 334 172 36 35 66 60 68 56 2 -4 -6 -36 -17 -70z"/>
</g>
</svg>
