<?xml version="1.0" standalone="no"?>
<!DOCTYPE svg PUBLIC "-//W3C//DTD SVG 20010904//EN"
 "http://www.w3.org/TR/2001/REC-SVG-20010904/DTD/svg10.dtd">
<svg version="1.0" xmlns="http://www.w3.org/2000/svg"
 width="261.000000pt" height="439.000000pt" viewBox="0 0 261.000000 439.000000"
 preserveAspectRatio="xMidYMid meet">

<g transform="translate(0.000000,439.000000) scale(0.100000,-0.100000)"
fill="#000000" stroke="none">
<path d="M2030 4253 c-131 -14 -307 -122 -391 -238 -17 -24 -38 -46 -46 -49
-8 -4 -39 21 -79 63 -64 69 -134 114 -226 146 -52 18 -225 20 -277 4 -103 -32
-177 -76 -245 -142 l-68 -69 -42 39 c-70 67 -144 99 -227 97 -88 -1 -202 -66
-245 -140 -63 -108 -74 -159 -74 -350 0 -169 11 -252 40 -305 5 -9 12 -33 15
-53 4 -20 11 -39 16 -42 5 -3 9 -16 9 -29 0 -13 7 -45 16 -71 8 -25 17 -72 19
-103 8 -134 35 -484 45 -576 13 -122 17 -636 5 -655 -5 -8 -12 -82 -16 -164
-5 -83 -13 -166 -18 -184 -16 -55 -45 -254 -43 -298 1 -23 -9 -73 -24 -115
-30 -87 -40 -137 -59 -279 -7 -58 -18 -125 -24 -150 -6 -25 -13 -110 -17 -190
-6 -167 3 -201 66 -232 57 -29 187 -18 231 19 8 7 18 13 21 13 12 0 114 73
153 109 85 79 218 241 299 366 106 163 154 243 215 366 18 35 36 71 41 79 5 8
20 40 33 70 14 30 39 85 56 122 17 37 39 89 50 116 28 70 67 137 81 137 34 0
66 -241 63 -480 -2 -154 -9 -236 -52 -595 -17 -147 -18 -174 -6 -242 26 -148
109 -205 210 -143 22 14 49 29 60 34 36 16 191 187 248 273 30 46 78 130 106
188 29 58 57 113 62 122 5 10 9 26 9 36 0 10 7 27 15 38 8 10 15 26 15 34 0 8
6 26 13 40 7 14 21 61 31 105 10 44 24 97 32 118 8 20 14 50 14 65 0 15 4 32
9 38 18 19 34 205 38 439 2 136 10 283 18 339 8 55 15 174 15 265 0 91 5 184
11 206 5 22 14 96 19 165 8 117 16 153 69 337 13 46 21 101 21 151 0 74 13
134 45 207 21 47 54 152 61 193 3 20 12 60 19 87 8 28 21 101 31 163 16 107
16 117 -1 195 -23 109 -50 160 -110 213 -54 48 -128 80 -215 95 -55 9 -74 9
-140 2z m183 -50 c59 -19 140 -68 178 -110 49 -53 62 -105 62 -248 0 -139 -23
-286 -63 -400 -11 -33 -30 -87 -41 -120 -10 -33 -41 -103 -67 -155 -38 -78
-62 -110 -132 -180 -47 -47 -98 -92 -115 -100 -16 -8 -37 -20 -45 -26 -8 -7
-51 -25 -95 -40 -79 -27 -83 -27 -320 -25 -255 1 -338 -6 -590 -56 -257 -50
-342 -53 -449 -12 -32 12 -80 42 -107 67 -54 48 -123 156 -144 224 -7 24 -21
61 -30 83 -21 48 -68 208 -95 320 -34 140 -18 357 33 476 21 47 83 110 132
133 49 24 165 24 220 2 72 -31 130 -102 114 -141 -11 -28 -11 -65 0 -65 5 0
24 26 42 57 49 86 144 177 220 211 97 44 161 62 218 62 56 0 184 -39 246 -75
47 -27 135 -117 158 -161 16 -30 15 -34 -8 -83 -25 -50 -33 -97 -16 -87 5 3
19 25 31 48 40 76 44 82 93 150 149 208 383 311 570 251z m82 -1213 c-47 -159
-55 -190 -64 -244 -6 -33 -11 -91 -11 -130 -1 -39 -7 -98 -15 -131 -10 -40
-15 -116 -15 -226 0 -92 -5 -190 -10 -219 -14 -72 -29 -308 -39 -587 -5 -128
-13 -239 -19 -245 -9 -12 -18 -50 -41 -178 -5 -25 -18 -70 -30 -100 -12 -30
-31 -82 -43 -115 -29 -86 -125 -279 -177 -355 -109 -161 -217 -273 -308 -317
-63 -30 -93 -26 -125 18 -46 62 -51 186 -18 419 34 232 44 349 48 540 3 171 0
224 -12 265 -8 27 -18 75 -22 105 -3 30 -13 72 -21 93 -12 30 -20 37 -42 37
-34 0 -71 -39 -96 -100 -10 -25 -35 -83 -57 -128 -21 -46 -38 -88 -38 -93 0
-8 -74 -163 -102 -213 -5 -11 -26 -51 -45 -89 -68 -135 -208 -354 -308 -479
-67 -84 -214 -231 -262 -261 -21 -13 -75 -36 -120 -52 -79 -27 -83 -27 -117
-11 -19 9 -44 32 -56 52 -20 31 -22 44 -16 112 4 42 11 106 17 142 5 36 14
108 19 160 13 131 51 337 67 363 4 6 10 52 15 101 4 50 15 132 23 181 31 178
33 201 34 300 1 55 6 116 12 135 14 43 14 609 -1 720 -5 41 -14 156 -20 255
-6 99 -13 198 -16 220 -5 40 -4 40 25 -20 57 -117 165 -209 284 -241 97 -26
175 -19 412 36 119 27 338 42 560 39 186 -3 288 4 340 26 17 7 61 25 98 40 38
15 87 42 109 59 61 46 155 146 175 186 10 19 22 41 28 49 18 25 18 -58 0 -119z"/>
</g>
</svg>
