<?xml version="1.0" standalone="no"?>
<!DOCTYPE svg PUBLIC "-//W3C//DTD SVG 20010904//EN"
 "http://www.w3.org/TR/2001/REC-SVG-20010904/DTD/svg10.dtd">
<svg version="1.0" xmlns="http://www.w3.org/2000/svg"
 width="178.000000pt" height="474.000000pt" viewBox="0 0 178.000000 474.000000"
 preserveAspectRatio="xMidYMid meet">

<g transform="translate(0.000000,474.000000) scale(0.100000,-0.100000)"
fill="#000000" stroke="none">
<path d="M900 4603 c-108 -16 -203 -57 -340 -149 -163 -109 -284 -232 -330
-337 -33 -74 -60 -195 -60 -265 0 -85 41 -295 76 -388 39 -104 44 -130 47
-244 2 -58 11 -154 20 -215 47 -321 57 -402 57 -444 0 -19 4 -60 10 -90 22
-126 41 -346 39 -453 -1 -62 3 -133 9 -158 17 -74 25 -442 12 -565 -6 -60 -15
-191 -21 -290 -5 -99 -13 -220 -18 -270 -44 -433 -38 -557 32 -609 23 -17 31
-18 64 -8 77 23 199 158 354 391 32 50 59 92 59 95 0 3 14 28 30 55 38 61 123
257 151 348 11 37 25 76 30 85 11 21 41 118 64 208 9 36 21 72 25 81 9 17 28
96 55 224 9 44 23 100 30 125 24 83 45 178 45 207 0 35 35 208 46 224 4 7 11
45 15 83 15 128 27 201 38 229 6 16 11 56 11 90 0 35 7 87 15 117 9 30 20 89
25 130 28 242 42 331 65 427 23 95 26 126 24 258 -1 130 2 165 25 268 44 202
33 352 -35 452 -33 48 -184 197 -219 215 -14 7 -41 25 -60 40 -50 38 -176 100
-240 118 -44 13 -117 20 -150 15z m113 -47 c30 -8 63 -18 73 -23 11 -6 51 -25
89 -43 39 -18 81 -43 95 -55 14 -13 30 -24 36 -26 46 -15 225 -194 253 -252
29 -61 42 -168 30 -252 -14 -102 -31 -189 -39 -200 -4 -5 -15 -37 -25 -70 -47
-164 -122 -320 -233 -491 -124 -189 -248 -307 -357 -341 -48 -15 -151 -17
-160 -3 -3 6 -14 10 -23 11 -31 1 -135 83 -185 144 -80 99 -168 242 -201 325
-3 8 -10 22 -15 30 -16 28 -31 65 -51 130 -11 36 -24 74 -30 85 -29 62 -43
140 -47 275 -6 173 6 236 67 339 40 69 159 191 230 236 19 12 41 30 49 39 7 9
18 16 23 16 5 0 24 11 41 24 46 34 92 56 182 87 92 32 123 34 198 15z m512
-1292 c-15 -59 -33 -160 -40 -223 -24 -196 -35 -274 -51 -333 -8 -32 -16 -88
-18 -126 -1 -38 -10 -91 -19 -118 -9 -27 -23 -101 -33 -164 -9 -63 -22 -142
-29 -175 -7 -33 -19 -86 -26 -117 -6 -31 -9 -70 -6 -87 4 -18 1 -42 -7 -58 -8
-15 -22 -64 -31 -108 -27 -130 -45 -208 -57 -245 -6 -19 -15 -48 -19 -65 -49
-193 -61 -240 -69 -254 -12 -24 -35 -88 -56 -156 -9 -33 -21 -64 -25 -70 -4
-5 -22 -46 -40 -90 -37 -92 -133 -273 -185 -351 -116 -175 -266 -349 -310
-360 -61 -16 -82 17 -91 141 -7 93 13 413 28 460 10 30 24 241 36 550 3 88 1
293 -6 455 -10 260 -20 380 -51 655 -5 39 -13 118 -19 176 -6 58 -18 154 -26
215 -9 60 -23 156 -31 214 -8 58 -17 137 -20 175 l-5 70 40 -76 c75 -143 132
-227 207 -305 77 -79 125 -110 204 -130 199 -51 372 64 577 385 51 80 153 285
179 360 l19 54 3 -95 c2 -76 -3 -118 -23 -204z"/>
</g>
</svg>
