<?xml version="1.0" standalone="no"?>
<!DOCTYPE svg PUBLIC "-//W3C//DTD SVG 20010904//EN"
 "http://www.w3.org/TR/2001/REC-SVG-20010904/DTD/svg10.dtd">
<svg version="1.0" xmlns="http://www.w3.org/2000/svg"
 width="128.000000pt" height="445.000000pt" viewBox="0 0 128.000000 445.000000"
 preserveAspectRatio="xMidYMid meet">

<g transform="translate(0.000000,445.000000) scale(0.100000,-0.100000)"
fill="#000000" stroke="none">
<path d="M525 4308 c-72 -5 -138 -13 -147 -18 -10 -6 -24 -10 -32 -10 -24 0
-106 -88 -129 -138 -20 -45 -22 -64 -25 -407 -3 -303 -1 -371 12 -428 9 -38
16 -85 16 -107 0 -41 39 -201 66 -272 11 -28 19 -92 24 -188 4 -80 12 -167 18
-195 7 -27 16 -149 22 -270 17 -358 37 -628 61 -860 7 -66 11 -154 9 -195 -8
-153 -4 -787 7 -855 14 -97 63 -192 108 -211 66 -27 88 -20 151 49 36 40 71
92 96 146 70 151 126 345 114 402 -3 15 -1 54 5 86 5 32 17 99 25 148 17 96
25 163 43 345 7 63 17 137 23 165 6 27 15 92 19 145 4 52 13 119 18 149 6 30
15 120 21 200 6 80 15 173 20 206 5 33 12 134 15 225 7 204 19 320 39 392 21
69 19 329 -1 336 -10 3 -13 -26 -13 -125 0 -81 -6 -148 -15 -183 -21 -79 -45
-296 -45 -412 0 -90 -8 -190 -40 -488 -6 -52 -10 -111 -10 -131 0 -20 -4 -49
-9 -65 -5 -16 -17 -101 -26 -189 -18 -177 -42 -356 -57 -425 -5 -25 -14 -74
-18 -110 -31 -237 -40 -293 -55 -359 -9 -41 -18 -78 -21 -83 -3 -4 -12 -34
-20 -65 -19 -77 -96 -229 -137 -274 -68 -73 -100 -70 -140 15 -15 31 -27 62
-27 69 0 7 -6 19 -13 25 -9 10 -13 135 -18 520 -7 543 -24 994 -40 1023 -5 10
-9 44 -9 77 0 95 -12 242 -20 237 -4 -2 -10 70 -14 160 -4 91 -13 199 -21 241
-8 42 -15 106 -15 142 l1 67 23 -45 c33 -61 146 -192 191 -220 84 -52 180 -33
262 52 35 37 133 171 133 183 0 2 24 55 54 117 29 62 56 127 60 143 4 17 17
53 30 80 24 51 56 197 56 253 0 17 5 43 11 58 19 51 42 325 46 546 5 247 0
270 -66 310 -35 22 -45 23 -261 24 -124 0 -283 -4 -355 -8z m612 -73 l35 -40
-6 -195 c-7 -270 -37 -590 -66 -703 -36 -138 -77 -256 -132 -374 -15 -34 -28
-64 -28 -67 0 -4 -24 -46 -54 -94 -134 -216 -253 -253 -373 -117 -27 30 -61
80 -78 112 -16 32 -35 65 -41 73 -6 8 -25 56 -43 105 -18 50 -37 99 -42 110
-27 61 -57 275 -70 490 -11 181 -5 543 9 573 5 9 17 34 27 54 46 96 152 116
599 114 l228 -1 35 -40z"/>
</g>
</svg>
