<svg version="1.1" id="Layer_1" xmlns="http://www.w3.org/2000/svg" xmlns:xlink="http://www.w3.org/1999/xlink" x="0px" y="0px"
	 width="100%" viewBox="0 0 224 384" enable-background="new 0 0 224 384" xml:space="preserve">
<path
    fill="white"
    stroke="none"
    d="
M225.000000,339.531738 
	C222.675201,341.674927 223.320374,344.567474 222.225525,346.778900 
	C215.360992,360.644257 204.627884,368.926788 189.304108,372.389984 
	C171.994568,376.301941 155.994690,373.119934 140.415955,366.031891 
	C132.650421,362.498718 127.480705,355.869568 122.926781,348.260406 
	C118.471397,352.894928 115.830742,358.119995 111.789474,362.288147 
	C89.725273,385.045288 61.794350,385.727386 38.816216,364.428619 
	C25.700016,352.270996 22.349646,337.519745 26.239065,319.936310 
	C29.104656,306.981445 31.903996,294.055603 35.816525,281.383942 
	C36.695427,278.537384 37.643745,275.596680 39.196991,273.094727 
	C44.711231,264.212402 45.542404,254.030197 47.932587,244.229599 
	C51.462162,229.757095 50.495953,214.736938 53.360340,200.369339 
	C56.212425,186.063492 54.686806,171.863983 55.055202,157.705551 
	C55.361206,145.944916 53.537464,133.899887 52.235878,122.076157 
	C51.071365,111.497604 49.338123,100.724350 46.360104,90.440353 
	C43.011940,78.878143 41.003109,66.951294 36.461399,55.691593 
	C33.042953,47.216675 35.515324,38.547695 41.638020,33.984779 
	C49.417023,28.187500 58.359749,28.348162 67.207382,33.997375 
	C72.094444,37.117760 76.049438,41.201096 79.244133,45.778778 
	C91.025169,62.659836 102.937874,79.485901 112.552544,99.190758 
	C112.552544,92.483513 112.880997,86.834366 112.468361,81.239876 
	C111.966652,74.437668 111.900063,67.616028 111.147346,60.810471 
	C110.632195,56.152771 112.152397,51.736145 116.894302,48.991932 
	C122.811920,45.567326 127.716553,48.262924 132.092896,51.510052 
	C144.366592,60.616814 154.025024,72.267151 162.959793,84.567413 
	C175.676392,102.073990 184.434250,121.529724 191.769302,141.755798 
	C194.203049,148.466766 195.414780,155.617416 197.846695,162.093002 
	C201.994537,173.137634 202.217133,184.722015 205.066223,195.866867 
	C206.336243,200.834808 205.332001,206.100952 205.704544,211.258911 
	C206.982193,228.948425 210.226135,246.364151 212.202026,263.944946 
	C212.960449,270.693146 212.199722,277.490295 213.644058,284.311584 
	C215.416153,292.680908 219.033188,300.350464 221.517853,308.429443 
	C222.743851,312.415802 222.509232,316.710236 224.755707,320.723938 
	C225.000000,327.021149 225.000000,333.042297 225.000000,339.531738 
M83.423813,64.066078 
	C82.588120,62.823238 81.792221,61.551369 80.910240,60.342293 
	C75.455757,52.864971 71.274887,44.326298 62.756866,39.447609 
	C57.335907,36.342762 51.808693,36.413708 46.489307,38.925404 
	C41.445297,41.307076 42.996078,46.360653 43.147095,50.515762 
	C43.512367,60.565723 48.302925,69.592194 50.001598,79.444366 
	C52.380142,93.239761 56.742264,106.682358 57.507740,120.806213 
	C58.109703,131.913116 60.545578,142.830978 60.238525,154.070480 
	C59.713150,173.301529 60.852119,192.463715 57.599937,211.739517 
	C55.823456,222.268753 54.216564,232.953384 52.693249,243.591080 
	C52.278862,246.484879 50.729828,249.444214 51.819481,253.169052 
	C54.268330,250.633392 56.034187,248.366440 58.214283,246.615158 
	C80.472694,228.734848 106.205978,223.544754 134.018127,226.058273 
	C137.165497,226.342712 140.321686,226.657104 143.477280,226.699844 
	C154.159988,226.844528 164.249802,229.915298 173.783707,234.126389 
	C188.971832,240.834915 198.359314,253.471756 205.350937,268.080872 
	C205.813889,269.048218 205.740814,270.475494 207.638626,270.496338 
	C208.592087,267.194580 207.168350,263.967773 207.275208,260.757385 
	C207.499802,254.009705 204.158203,248.016342 203.853882,241.308838 
	C203.335388,229.880814 201.593323,218.501617 200.163971,207.164673 
	C198.598846,194.751038 195.816101,182.430099 192.650696,170.221558 
	C188.666626,154.855621 185.180466,139.357635 178.633331,124.829628 
	C169.840103,105.317612 158.478226,87.398102 144.030426,71.548279 
	C138.994110,66.023247 133.880966,60.531494 127.497398,56.423069 
	C125.002541,54.817390 122.400711,54.577366 119.908669,55.695435 
	C117.050735,56.977673 117.634125,59.730946 117.851692,62.265629 
	C119.047028,76.191376 120.378632,90.109810 120.275162,104.113541 
	C120.260498,106.098862 120.251099,108.177956 120.784843,110.058823 
	C125.148911,125.437431 127.495544,141.202347 129.975571,156.944702 
	C130.243362,158.644485 130.549225,160.559494 128.473541,161.147903 
	C126.298653,161.764404 124.707405,160.212860 124.515045,158.313980 
	C124.039139,153.615875 121.585655,149.438370 121.047768,144.869507 
	C119.746956,133.820282 115.626236,123.581161 111.600449,113.479599 
	C104.633636,95.998329 94.528542,80.120636 83.423813,64.066078 
M38.025532,299.536896 
	C36.451290,307.003998 34.972961,314.492889 33.283947,321.933960 
	C29.033451,340.659760 35.096745,355.206909 51.600746,365.262024 
	C66.543724,374.366028 81.523308,374.949890 96.647545,365.473907 
	C104.761650,360.390106 110.474083,353.313446 115.623703,345.393799 
	C118.362465,341.181824 119.392441,337.322784 117.577171,332.820343 
	C114.619179,325.483643 112.885643,317.628693 108.385437,310.937225 
	C107.344215,309.389008 106.099045,307.484863 108.148018,306.145081 
	C110.054344,304.898590 111.064178,307.057770 112.046555,308.266754 
	C118.949249,316.761963 122.621956,326.927826 126.073601,337.045929 
	C130.458221,349.899017 138.356888,359.525818 151.317947,363.181641 
	C165.468979,367.173126 180.271530,368.349854 194.529022,363.457642 
	C204.643723,359.986908 211.828339,352.808105 215.807755,342.493347 
	C220.077911,331.424927 217.700333,320.597961 214.239975,310.272644 
	C209.768097,296.929047 205.502197,283.452148 198.979843,270.817108 
	C193.146606,259.516998 186.254639,249.209396 175.113541,242.728271 
	C161.990707,235.094284 146.981827,234.073517 132.373795,232.412750 
	C117.842163,230.760696 103.477333,233.087051 89.615974,237.645111 
	C76.496307,241.959274 64.841545,248.526428 55.972328,259.700531 
	C46.751255,271.317932 41.838314,284.688202 38.025532,299.536896 
z"/>
<path
    fill="none"
    stroke="black"
    stroke-width="4"
    d="
M225.000000,339.531738 
	C222.675201,341.674927 223.320374,344.567474 222.225525,346.778900 
	C215.360992,360.644257 204.627884,368.926788 189.304108,372.389984 
	C171.994568,376.301941 155.994690,373.119934 140.415955,366.031891 
	C132.650421,362.498718 127.480705,355.869568 122.926781,348.260406 
	C118.471397,352.894928 115.830742,358.119995 111.789474,362.288147 
	C89.725273,385.045288 61.794350,385.727386 38.816216,364.428619 
	C25.700016,352.270996 22.349646,337.519745 26.239065,319.936310 
	C29.104656,306.981445 31.903996,294.055603 35.816525,281.383942 
	C36.695427,278.537384 37.643745,275.596680 39.196991,273.094727 
	C44.711231,264.212402 45.542404,254.030197 47.932587,244.229599 
	C51.462162,229.757095 50.495953,214.736938 53.360340,200.369339 
	C56.212425,186.063492 54.686806,171.863983 55.055202,157.705551 
	C55.361206,145.944916 53.537464,133.899887 52.235878,122.076157 
	C51.071365,111.497604 49.338123,100.724350 46.360104,90.440353 
	C43.011940,78.878143 41.003109,66.951294 36.461399,55.691593 
	C33.042953,47.216675 35.515324,38.547695 41.638020,33.984779 
	C49.417023,28.187500 58.359749,28.348162 67.207382,33.997375 
	C72.094444,37.117760 76.049438,41.201096 79.244133,45.778778 
	C91.025169,62.659836 102.937874,79.485901 112.552544,99.190758 
	C112.552544,92.483513 112.880997,86.834366 112.468361,81.239876 
	C111.966652,74.437668 111.900063,67.616028 111.147346,60.810471 
	C110.632195,56.152771 112.152397,51.736145 116.894302,48.991932 
	C122.811920,45.567326 127.716553,48.262924 132.092896,51.510052 
	C144.366592,60.616814 154.025024,72.267151 162.959793,84.567413 
	C175.676392,102.073990 184.434250,121.529724 191.769302,141.755798 
	C194.203049,148.466766 195.414780,155.617416 197.846695,162.093002 
	C201.994537,173.137634 202.217133,184.722015 205.066223,195.866867 
	C206.336243,200.834808 205.332001,206.100952 205.704544,211.258911 
	C206.982193,228.948425 210.226135,246.364151 212.202026,263.944946 
	C212.960449,270.693146 212.199722,277.490295 213.644058,284.311584 
	C215.416153,292.680908 219.033188,300.350464 221.517853,308.429443 
	C222.743851,312.415802 222.509232,316.710236 224.755707,320.723938 
	C225.000000,327.021149 225.000000,333.042297 225.000000,339.531738 
M83.423813,64.066078 
	C82.588120,62.823238 81.792221,61.551369 80.910240,60.342293 
	C75.455757,52.864971 71.274887,44.326298 62.756866,39.447609 
	C57.335907,36.342762 51.808693,36.413708 46.489307,38.925404 
	C41.445297,41.307076 42.996078,46.360653 43.147095,50.515762 
	C43.512367,60.565723 48.302925,69.592194 50.001598,79.444366 
	C52.380142,93.239761 56.742264,106.682358 57.507740,120.806213 
	C58.109703,131.913116 60.545578,142.830978 60.238525,154.070480 
	C59.713150,173.301529 60.852119,192.463715 57.599937,211.739517 
	C55.823456,222.268753 54.216564,232.953384 52.693249,243.591080 
	C52.278862,246.484879 50.729828,249.444214 51.819481,253.169052 
	C54.268330,250.633392 56.034187,248.366440 58.214283,246.615158 
	C80.472694,228.734848 106.205978,223.544754 134.018127,226.058273 
	C137.165497,226.342712 140.321686,226.657104 143.477280,226.699844 
	C154.159988,226.844528 164.249802,229.915298 173.783707,234.126389 
	C188.971832,240.834915 198.359314,253.471756 205.350937,268.080872 
	C205.813889,269.048218 205.740814,270.475494 207.638626,270.496338 
	C208.592087,267.194580 207.168350,263.967773 207.275208,260.757385 
	C207.499802,254.009705 204.158203,248.016342 203.853882,241.308838 
	C203.335388,229.880814 201.593323,218.501617 200.163971,207.164673 
	C198.598846,194.751038 195.816101,182.430099 192.650696,170.221558 
	C188.666626,154.855621 185.180466,139.357635 178.633331,124.829628 
	C169.840103,105.317612 158.478226,87.398102 144.030426,71.548279 
	C138.994110,66.023247 133.880966,60.531494 127.497398,56.423069 
	C125.002541,54.817390 122.400711,54.577366 119.908669,55.695435 
	C117.050735,56.977673 117.634125,59.730946 117.851692,62.265629 
	C119.047028,76.191376 120.378632,90.109810 120.275162,104.113541 
	C120.260498,106.098862 120.251099,108.177956 120.784843,110.058823 
	C125.148911,125.437431 127.495544,141.202347 129.975571,156.944702 
	C130.243362,158.644485 130.549225,160.559494 128.473541,161.147903 
	C126.298653,161.764404 124.707405,160.212860 124.515045,158.313980 
	C124.039139,153.615875 121.585655,149.438370 121.047768,144.869507 
	C119.746956,133.820282 115.626236,123.581161 111.600449,113.479599 
	C104.633636,95.998329 94.528542,80.120636 83.423813,64.066078 
M38.025532,299.536896 
	C36.451290,307.003998 34.972961,314.492889 33.283947,321.933960 
	C29.033451,340.659760 35.096745,355.206909 51.600746,365.262024 
	C66.543724,374.366028 81.523308,374.949890 96.647545,365.473907 
	C104.761650,360.390106 110.474083,353.313446 115.623703,345.393799 
	C118.362465,341.181824 119.392441,337.322784 117.577171,332.820343 
	C114.619179,325.483643 112.885643,317.628693 108.385437,310.937225 
	C107.344215,309.389008 106.099045,307.484863 108.148018,306.145081 
	C110.054344,304.898590 111.064178,307.057770 112.046555,308.266754 
	C118.949249,316.761963 122.621956,326.927826 126.073601,337.045929 
	C130.458221,349.899017 138.356888,359.525818 151.317947,363.181641 
	C165.468979,367.173126 180.271530,368.349854 194.529022,363.457642 
	C204.643723,359.986908 211.828339,352.808105 215.807755,342.493347 
	C220.077911,331.424927 217.700333,320.597961 214.239975,310.272644 
	C209.768097,296.929047 205.502197,283.452148 198.979843,270.817108 
	C193.146606,259.516998 186.254639,249.209396 175.113541,242.728271 
	C161.990707,235.094284 146.981827,234.073517 132.373795,232.412750 
	C117.842163,230.760696 103.477333,233.087051 89.615974,237.645111 
	C76.496307,241.959274 64.841545,248.526428 55.972328,259.700531 
	C46.751255,271.317932 41.838314,284.688202 38.025532,299.536896 
z"/>
</svg>