<?xml version="1.0" encoding="UTF-8" standalone="no"?>
<svg
   version="1.1"
   id="Layer_1"
   x="0px"
   y="0px"
   width="100%"
   viewBox="0 0 176 448"
   enable-background="new 0 0 176 448"
   xml:space="preserve"
   sodipodi:docname="10.svg"
   inkscape:version="1.4.3 (0d15f75, 2025-12-25)"
   xmlns:inkscape="http://www.inkscape.org/namespaces/inkscape"
   xmlns:sodipodi="http://sodipodi.sourceforge.net/DTD/sodipodi-0.dtd"
   xmlns="http://www.w3.org/2000/svg"
   xmlns:svg="http://www.w3.org/2000/svg"><defs
   id="defs1" /><sodipodi:namedview
   id="namedview1"
   pagecolor="#ffffff"
   bordercolor="#000000"
   borderopacity="0.25"
   inkscape:showpageshadow="2"
   inkscape:pageopacity="0.0"
   inkscape:pagecheckerboard="0"
   inkscape:deskcolor="#d1d1d1"
   inkscape:zoom="1.7254464"
   inkscape:cx="87.803364"
   inkscape:cy="224"
   inkscape:window-width="1920"
   inkscape:window-height="991"
   inkscape:window-x="-9"
   inkscape:window-y="-9"
   inkscape:window-maximized="1"
   inkscape:current-layer="Layer_1" />
<path
   fill="#000000"
   opacity="1"
   stroke="none"
   d="m 100.36721,449 c 8.15123,-1.2619 15.88306,-2.28241 23.50566,-3.83817 14.03974,-2.86547 26.90722,-8.17297 34.56089,-21.18545 4.73754,-8.05457 6.67524,-17.0896 7.78206,-26.51608 2.10717,-17.94635 2.54565,-35.90155 1.64386,-53.86115 -0.59757,-11.90085 -3.02137,-23.53161 -6.72322,-35.04571 -2.22104,-6.90821 -4.1056,-14.46701 -4.24977,-21.80561 -0.23836,-12.13293 -2.85741,-23.78274 -5.05103,-35.55812 -0.27385,-1.47003 -0.7144,-2.96507 -0.65722,-4.43214 0.6563,-16.83878 -2.03133,-33.50786 -2.55423,-50.30843 -0.65405,-21.01414 0.30898,-41.95599 0.65577,-62.91809 0.1584,-9.57451 1.8387,-19.18168 3.47858,-28.66163 3.28365,-18.982297 0.70736,-37.427709 -4.35022,-55.68501 -0.92474,-3.338222 -2.88456,-6.320755 -5.65361,-8.672897 -4.00802,-3.404583 -7.19675,-3.487683 -11.69641,-0.602165 -8.82758,5.660915 -13.55019,14.587627 -18.18514,23.350486 -7.20071,13.613724 -13.545562,27.687912 -18.884269,42.141706 -5.453186,14.76375 -9.824486,29.87231 -13.500855,45.20603 -2.631294,10.97483 -3.594292,22.19126 -5.703628,33.1361 -1.648049,8.55134 -1.965012,17.36697 -4.454018,25.92254 -1.579033,5.42772 -2.977547,11.41429 -3.388771,17.3738 -0.399887,5.7949 -2.575134,11.23021 -4.907806,16.5076 -1.694046,3.83256 -2.073273,8.06953 -2.85553,11.97194 -1.832398,9.14131 -5.847031,17.50364 -7.958161,26.45597 -1.287796,5.46094 -2.367233,11.05127 -3.20639,16.53885 -1.573319,10.28861 -5.935333,19.66663 -8.150101,29.72086 -2.043838,9.2782 -3.404709,18.63754 -5.073242,27.96051 -2.848328,15.91522 -2.436203,32.12805 -4.479263,48.13043 -1.134995,8.88999 -1.35759,17.91596 1.620041,26.69638 2.611358,7.70041 7.520111,12.44715 15.56253,14.51727 5.511902,1.41877 11.098419,2.06299 16.992813,3.27768 C 76.523426,449 88.210987,449 100.36721,449 m -13.186939,-6.26736 c -11.439438,1.17392 -22.52887,-1.70548 -33.698257,-3.20881 -10.912323,-1.46878 -15.379532,-7.43411 -15.550568,-18.41958 -0.397507,-25.53253 2.249786,-50.83289 6.222626,-75.98474 0.823684,-5.21466 1.281173,-10.56733 2.678238,-15.66825 3.614242,-13.19622 8.989837,-25.68286 16.358597,-37.23422 8.788383,-13.7767 19.064979,-25.60733 36.776893,-27.65814 13.17149,-1.52512 25.03394,1.46774 34.33223,11.01517 12.77229,13.1145 19.08009,29.64337 23.26931,47.17218 3.60358,15.07834 3.09316,30.36862 3.2016,45.66867 0.11016,15.54126 -1.50084,30.7991 -5.90574,45.74597 -2.45108,8.31711 -7.50436,14.20083 -15.29823,17.97888 -16.26818,7.88589 -34.14788,7.7663 -52.386699,10.59287 m 6.277214,-314.63996 c 4.081268,-10.51487 7.707795,-21.18888 11.942465,-31.66445 5.30138,-13.114341 11.40539,-25.756218 18.30668,-38.042591 2.27911,-4.05748 5.35915,-7.628177 8.91858,-10.697655 2.34695,-2.023906 4.94037,-2.567642 6.85828,0.297116 1.63924,2.448517 3.36829,5.180576 3.85598,7.995415 1.86969,10.791275 3.4312,21.59082 3.44485,32.658226 0.0187,15.189399 -2.53735,30.142989 -4.02709,45.119409 -2.23407,22.45901 -3.11467,44.75885 -0.54946,67.09073 1.08281,9.4266 1.08191,18.86981 2.01798,28.28453 1.04758,10.5363 2.3814,21.01844 3.85837,31.49266 1.14606,8.12753 3.36161,16.12292 3.39008,24.50931 -0.51573,-0.10523 -0.73934,-0.0843 -0.79933,-0.17343 -0.55512,-0.82499 -1.05764,-1.6857 -1.62074,-2.50492 -9.47617,-13.78647 -20.78004,-24.04828 -38.94531,-25.0907 -17.523405,-1.00555 -31.40299,4.66114 -42.839987,17.70676 -4.414902,5.03586 -8.082962,10.62942 -12.355743,15.78616 1.648666,-9.28442 4.921814,-17.91372 7.779312,-26.6979 3.771759,-11.59465 7.020325,-23.37682 9.371506,-35.43726 1.347229,-6.91063 3.182861,-13.87259 4.805984,-20.78319 3.863205,-16.44797 4.68512,-33.45825 8.686226,-49.94618 1.053787,-4.34247 2.947197,-8.39594 3.594765,-12.89729 0.793586,-5.51641 2.543861,-10.89519 4.306602,-17.00475 z"
   id="path1" />
</svg>
