<?xml version="1.0" encoding="UTF-8" standalone="no"?>
<svg
   version="1.1"
   id="Layer_1"
   x="0px"
   y="0px"
   width="100%"
   viewBox="0 0 208 528"
   enable-background="new 0 0 208 528"
   xml:space="preserve"
   sodipodi:docname="11.svg"
   inkscape:version="1.4.3 (0d15f75, 2025-12-25)"
   xmlns:inkscape="http://www.inkscape.org/namespaces/inkscape"
   xmlns:sodipodi="http://sodipodi.sourceforge.net/DTD/sodipodi-0.dtd"
   xmlns="http://www.w3.org/2000/svg"
   xmlns:svg="http://www.w3.org/2000/svg"><defs
   id="defs1" /><sodipodi:namedview
   id="namedview1"
   pagecolor="#ffffff"
   bordercolor="#000000"
   borderopacity="0.25"
   inkscape:showpageshadow="2"
   inkscape:pageopacity="0.0"
   inkscape:pagecheckerboard="0"
   inkscape:deskcolor="#d1d1d1"
   inkscape:zoom="1.4640152"
   inkscape:cx="104.16559"
   inkscape:cy="264"
   inkscape:window-width="1920"
   inkscape:window-height="991"
   inkscape:window-x="-9"
   inkscape:window-y="-9"
   inkscape:window-maximized="1"
   inkscape:current-layer="Layer_1" />
<path
   fill="#000000"
   opacity="1"
   stroke="none"
   d="m 47.201368,497.04733 c 7.906189,7.70118 15.8452,14.83045 25.614045,19.43631 10.1259,4.77423 20.531066,5.85071 31.535157,2.72919 18.03405,-5.11566 33.57822,-14.96121 49.07023,-24.93314 10.25627,-6.60177 19.13406,-14.66073 26.47204,-24.60681 10.66307,-14.45294 13.21242,-30.62384 11.07938,-47.74716 -1.68137,-13.4975 -6.19934,-26.36273 -9.98717,-39.41586 -3.93099,-13.54639 -11.38965,-26.04215 -12.75873,-40.22104 -1.03072,-10.67462 -4.4114,-20.7518 -6.15219,-31.15601 -1.5374,-9.18863 -1.223,-18.75036 -2.56886,-28.04977 -4.10586,-28.36998 -5.83334,-56.9421 -5.43148,-85.52294 0.32692,-23.2501 0.92774,-46.5218 2.68412,-69.78901 1.38797,-18.38693 3.22602,-36.788645 3.97226,-55.267771 0.54707,-13.54702 0.37428,-26.923542 -1.29723,-40.302685 -0.76453,-6.119471 -2.85155,-11.94095 -5.62429,-17.502018 -3.44668,-6.912747 -9.48873,-8.431138 -16.14807,-4.360188 -6.08274,3.718462 -9.92996,9.503357 -13.53029,15.126708 -9.15255,14.2954 -15.72133,29.817827 -21.23749,45.955038 -4.48701,13.126457 -8.918948,26.340706 -12.907313,39.561606 -4.15094,13.75978 -9.068619,27.36585 -12.087814,41.50813 -1.720032,8.05684 -4.996002,15.78127 -6.719666,23.83762 -2.984161,13.94783 -9.001999,27.09204 -10.499176,41.44194 -0.4935,4.72981 -2.450165,9.29553 -3.692505,13.94441 -2.093231,7.83295 -4.345749,15.55509 -5.048462,23.70752 -0.423446,4.91234 -2.22908,9.67525 -3.421661,14.4547 -2.367828,9.48935 -3.483047,19.16968 -5.597992,28.67178 -0.824402,3.70386 -1.415024,7.52551 -2.788025,11.02863 -3.503204,8.93817 -3.471054,18.48388 -5.064026,27.73156 -0.832992,4.83594 0.199585,9.96854 -2.200302,14.64063 -0.428696,0.83459 -0.646087,2.07187 -0.36737,2.93048 3.052261,9.4025 -2.711701,17.36798 -4.385285,25.93976 -2.412109,12.3544 -6.561447,24.30536 -8.259933,36.91031 -0.958313,7.11184 -1.24762,14.21365 -2.012574,21.29263 -1.650512,15.2742 4.978928,27.43738 13.366837,39.10797 4.761291,6.62467 9.934433,12.91776 15.993835,18.91748 M 183.89266,426.92731 c 1.46075,18.42346 -3.31212,34.84421 -17.04269,47.59073 -18.74123,17.39816 -40.41278,30.3955 -64.91995,37.65805 -9.053557,2.68298 -19.001608,1.94 -28.046553,-3.26603 -16.451966,-9.46926 -28.53273,-23.28591 -39.205231,-38.47909 -6.178253,-8.79517 -10.332748,-18.29556 -9.393097,-29.72186 0.761841,-9.2641 1.177033,-18.44623 2.913605,-27.68421 3.409759,-18.13894 7.621658,-36.08929 15.13652,-52.8418 9.430405,-21.0227 21.863434,-40.35101 39.888642,-55.32067 8.234016,-6.8382 17.923024,-11.21177 28.656734,-8.21842 10.43615,2.91037 18.65693,10.07337 25.9561,17.97248 16.37772,17.72378 26.40742,39.1412 33.65244,61.69635 5.20559,16.20599 11.50117,32.32327 12.40348,50.61447 M 159.34325,321.33685 c 0.76889,3.42936 2.06864,6.81421 0.56059,10.86795 -0.7271,-0.29434 -0.8726,-0.98358 -1.20764,-1.56332 -6.30359,-10.90753 -14.31579,-20.46854 -23.82322,-28.64377 -8.5119,-7.31924 -17.79214,-13.50284 -29.7452,-13.2633 -12.809789,0.25665 -22.798093,6.82974 -31.562291,15.23104 -12.437775,11.92279 -22.636414,25.63816 -30.445114,41.06461 -0.977967,1.93204 -2.144165,3.76877 -3.431244,6.01242 -1.391464,-2.35513 -0.850403,-3.98969 -0.724686,-5.62683 0.939972,-12.23914 3.531326,-24.18259 6.761124,-35.9729 1.716308,-6.26535 2.459976,-12.64804 3.449478,-19.01367 1.626358,-10.46271 5.219757,-20.44513 7.509979,-30.74808 2.336472,-10.51102 4.263642,-21.15936 7.402893,-31.43195 2.899552,-9.48826 4.277024,-19.30302 7.316361,-28.74925 2.673828,-8.31018 3.793533,-17.14484 6.741226,-25.33708 5.16861,-14.36458 7.663109,-29.47408 13.160957,-43.7562 4.034668,-10.48111 6.498368,-21.5556 10.056897,-32.234103 5.02578,-15.081482 9.85855,-30.229248 16.0258,-44.922386 5.06113,-12.057827 11.79372,-23.068957 19.75558,-33.321738 4.37191,-5.629856 9.7571,-4.870991 11.71215,1.26844 2.9889,9.386025 4.59388,19.034155 5.27301,28.870059 1.17802,17.061458 -1.38898,33.960529 -2.84077,50.823438 -2.46158,28.59195 -2.60714,57.21478 -2.65033,85.80891 -0.0274,18.13222 0.2407,36.30135 0.4269,54.45334 0.0307,2.99406 -0.16076,6.06313 0.41275,8.96671 2.96223,14.99723 3.47905,30.28651 5.6438,45.3723 1.20041,8.36538 2.61113,16.70062 4.221,25.84536 z"
   id="path1" />
</svg>
