<?xml version="1.0" encoding="UTF-8" standalone="no"?>
<svg
   version="1.1"
   id="Layer_1"
   x="0px"
   y="0px"
   width="100%"
   viewBox="0 0 192 496"
   enable-background="new 0 0 192 496"
   xml:space="preserve"
   sodipodi:docname="12.svg"
   inkscape:version="1.4.3 (0d15f75, 2025-12-25)"
   xmlns:inkscape="http://www.inkscape.org/namespaces/inkscape"
   xmlns:sodipodi="http://sodipodi.sourceforge.net/DTD/sodipodi-0.dtd"
   xmlns="http://www.w3.org/2000/svg"
   xmlns:svg="http://www.w3.org/2000/svg"><defs
   id="defs1" /><sodipodi:namedview
   id="namedview1"
   pagecolor="#ffffff"
   bordercolor="#000000"
   borderopacity="0.25"
   inkscape:showpageshadow="2"
   inkscape:pageopacity="0.0"
   inkscape:pagecheckerboard="0"
   inkscape:deskcolor="#d1d1d1"
   inkscape:zoom="1.5584677"
   inkscape:cx="95.927555"
   inkscape:cy="248"
   inkscape:window-width="1920"
   inkscape:window-height="991"
   inkscape:window-x="-9"
   inkscape:window-y="-9"
   inkscape:window-maximized="1"
   inkscape:current-layer="Layer_1" />
<path
   fill="#000000"
   opacity="1"
   stroke="none"
   d="m 46.310484,465.324 c 8.568741,10.07898 17.519455,19.09415 28.939446,25.49509 12.027412,6.74143 24.582901,6.59137 36.65031,1.90332 19.61184,-7.61896 36.78777,-19.3548 50.41309,-35.60818 12.57313,-14.9982 15.97692,-32.18711 12.08232,-51.40958 -2.67885,-13.22192 -6.28986,-26.17081 -10.05947,-39.04871 -3.28528,-11.22335 -5.08246,-22.73498 -5.75053,-34.11761 -0.91479,-15.58606 -4.01943,-30.83374 -5.14516,-46.29007 -0.71121,-9.76486 -2.13688,-19.457 -2.68788,-29.25058 -0.4802,-8.53534 -0.31509,-17.16215 -2.31425,-25.70152 -1.96667,-8.40055 -0.24576,-17.24489 -1.46264,-25.86869 -3.41195,-24.17973 -1.62821,-48.55769 -2.55591,-72.83163 -0.80319,-21.01601 1.65099,-41.848403 2.16845,-62.776565 0.15288,-6.183296 -1.0799,-12.214012 -4.5002,-17.622528 -3.9387,-6.228256 -9.62271,-7.97435 -16.2921,-4.843826 -15.7394,7.387847 -26.336749,19.716911 -34.205752,34.907608 -5.52108,10.658172 -9.65683,21.869571 -13.868759,33.034291 -2.967415,7.86581 -3.774155,16.40005 -6.409698,24.44499 -2.049302,6.25541 -3.926865,12.69699 -4.727021,19.19784 -0.9337,7.58585 -2.942047,14.92011 -4.420288,22.34961 -1.319946,6.63411 -2.394928,13.25577 -3.3358,19.94461 -1.613693,11.4722 -3.310776,22.98545 -5.631165,34.28948 -1.940155,9.45172 -0.413009,19.27035 -3.981018,28.43776 -1.280441,3.28985 -0.727157,6.92416 -0.696579,10.41674 0.04683,5.34751 -1.07785,10.50538 -1.956024,15.75534 -1.666321,9.96158 -3.221267,20.08878 -3.194549,30.14289 0.02402,9.0336 -2.919419,17.59198 -2.528427,26.61072 0.560195,12.9216 -5.848526,24.32724 -8.667603,36.51806 -3.116837,13.4784 -7.912277,26.72867 -6.012924,41.07877 2.09996,15.86557 10.032104,28.64676 20.150131,40.84237 M 33.9951,407.1492 c 1.834564,-7.91754 3.067505,-16.03671 5.63823,-23.70755 4.358215,-13.00467 8.058273,-26.27219 15.66896,-38.06082 8.891541,-13.77265 19.340195,-25.7775 33.811867,-33.81436 13.055933,-7.25061 29.721413,-4.14276 40.141463,6.52072 16.1461,16.52328 24.15451,37.02991 30.31772,58.55353 2.64739,9.24536 4.77892,18.64145 7.02817,27.99713 4.05958,16.88562 2.23837,32.78317 -8.81623,46.74759 -12.1365,15.33111 -27.92154,26.04422 -45.69709,33.59323 -9.5783,4.06778 -19.73473,5.45163 -30.03593,0.92459 C 73.140989,481.98703 66.00009,475.95251 59.462187,469.0365 51.57295,460.69092 44.116484,451.99164 38.863066,441.6524 33.453093,431.00504 33.21385,419.59033 33.9951,407.1492 M 102.74634,76.605621 c 5.8515,-8.703094 13.29509,-15.74094 22.37265,-20.96812 6.4589,-3.719269 10.24083,-1.97517 12.6781,4.931103 2.59461,7.352088 2.28127,14.962104 1.24344,22.238029 -3.33641,23.390367 -2.91764,46.868627 -1.92589,70.281467 1.18212,27.90744 3.49539,55.77558 5.80558,83.62032 0.54705,6.59357 0.9173,13.23465 1.70725,19.84254 1.23793,10.35511 2.68391,20.69452 3.75324,31.07273 1.20528,11.69781 3.47217,23.22744 5.28291,34.83014 0.86132,5.51907 0.64782,11.2059 0.92121,16.81674 -1.92904,-1.09699 -2.99305,-2.2063 -3.61695,-3.52399 -5.45986,-11.53122 -13.5133,-20.84662 -23.71112,-28.44507 -12.30362,-9.16748 -29.037821,-9.25817 -41.433176,-2.15497 -10.312805,5.90976 -19.145073,13.64142 -26.821816,22.8173 -5.086578,6.07992 -9.223404,12.74121 -13.462265,19.88086 -1.685455,-6.18171 0.840546,-11.34998 1.442322,-16.71021 1.368576,-12.19092 2.515289,-24.40955 4.079346,-36.5748 1.180099,-9.1788 3.04837,-18.26837 4.267135,-27.44324 0.851654,-6.41152 0.565934,-13.00744 1.783539,-19.32931 1.884781,-9.78557 3.396637,-19.62053 5.114105,-29.42529 1.317612,-7.52196 2.02649,-15.12741 3.464432,-22.60445 2.155228,-11.20674 5.480179,-22.22592 7.039322,-33.50029 1.875282,-13.56042 6.253731,-26.42554 10.001274,-39.39373 C 87.329939,106.94894 94.0725,91.682861 102.74634,76.605621 Z"
   id="path1" />
</svg>
