<?xml version="1.0" encoding="UTF-8" standalone="no"?>
<svg
   version="1.1"
   id="Layer_1"
   x="0px"
   y="0px"
   width="100%"
   viewBox="0 0 176 496"
   enable-background="new 0 0 176 496"
   xml:space="preserve"
   sodipodi:docname="13.svg"
   inkscape:version="1.4.3 (0d15f75, 2025-12-25)"
   xmlns:inkscape="http://www.inkscape.org/namespaces/inkscape"
   xmlns:sodipodi="http://sodipodi.sourceforge.net/DTD/sodipodi-0.dtd"
   xmlns="http://www.w3.org/2000/svg"
   xmlns:svg="http://www.w3.org/2000/svg"><defs
   id="defs1" /><sodipodi:namedview
   id="namedview1"
   pagecolor="#ffffff"
   bordercolor="#000000"
   borderopacity="0.25"
   inkscape:showpageshadow="2"
   inkscape:pageopacity="0.0"
   inkscape:pagecheckerboard="0"
   inkscape:deskcolor="#d1d1d1"
   inkscape:zoom="1.5584677"
   inkscape:cx="88.227684"
   inkscape:cy="248"
   inkscape:window-width="1920"
   inkscape:window-height="991"
   inkscape:window-x="-9"
   inkscape:window-y="-9"
   inkscape:window-maximized="1"
   inkscape:current-layer="Layer_1" />
<path
   fill="#000000"
   opacity="1"
   stroke="none"
   d="m 172.41044,385.0509 c -6.49587,-17.04391 -11.38847,-34.0317 -12.94547,-51.92785 -1.03221,-11.86426 -1.32154,-23.78644 -3.85179,-35.54773 -4.97257,-23.11383 -4.62964,-46.86953 -7.76918,-70.23564 -1.65536,-12.32009 0.22721,-24.92273 -1.43228,-37.36721 -2.14097,-16.05497 -1.2103,-32.26767 -1.82202,-48.40226 -0.89597,-23.63172 -0.73159,-47.301899 -1.32364,-70.948063 -0.15301,-6.111039 -1.12272,-12.248227 -4.37725,-17.747693 -2.98706,-5.047512 -7.69957,-6.803817 -13.00196,-4.575534 -8.63137,3.627258 -14.66326,10.221187 -19.75835,17.73442 -9.766264,14.401368 -16.042724,30.384919 -21.295544,46.88593 -4.18212,13.13755 -6.63839,26.68078 -10.13828,39.97441 -1.46907,5.58003 -1.97137,11.42176 -2.80656,17.16006 -1.97985,13.60301 -4.25338,27.17714 -5.71306,40.83722 -0.9849,9.21698 -1.19725,18.46521 -2.51105,27.72556 -1.78802,12.60322 -0.75963,25.51779 -2.93886,38.22845 -1.86206,10.86069 -0.50369,21.95938 -0.98631,32.93201 -0.6543,14.87616 -3.36935,29.35846 -7.65775,43.72915 -4.52014,15.14731 -10.1849,29.85477 -15.3316,44.75348 -3.42097,9.90305 -6.01157,19.90329 -8.10986,30.16181 -3.09426,15.12753 3.54464,25.62079 14.29185,34.85016 11.19327,9.61242 23.64206,17.23828 36.9479,23.41088 6.85506,3.18006 14.38243,4.57718 21.940604,3.42655 21.63871,-3.29422 42.03103,-9.8956 59.44223,-23.81201 9.85952,-7.88047 13.0645,-18.86808 14.0302,-30.78318 0.48405,-5.97235 0.50251,-11.98086 0.869,-17.96463 0.6691,-10.92459 -0.90973,-21.57898 -3.75097,-32.49829 m -67.62864,96.97721 c -7.139214,0.79083 -14.110464,1.1333 -21.075424,-1.78733 -12.86456,-5.39453 -24.456,-12.80413 -35.12596,-21.60443 -7.37565,-6.08328 -13.77729,-12.87189 -12.78979,-23.87402 1.56239,-17.40756 7.51825,-33.54746 13.3853,-49.74701 3.71606,-10.26044 7.77154,-20.41754 10.30304,-31.05661 3.0168,-12.67871 7.78641,-24.33969 17.59276,-33.44568 12.22824,-11.35492 26.642024,-16.17886 42.696294,-11.66742 17.07235,4.79746 25.51756,18.73129 31.12778,34.39423 3.74525,10.45611 6.66979,21.20349 10.11803,31.7695 3.49451,10.70773 7.89513,21.11325 7.26166,32.82263 -0.53927,9.96848 -0.26725,19.98056 -0.36536,29.97324 -0.0486,4.95269 -1.74022,9.444 -4.01733,13.73706 -4.58498,8.64413 -12.24188,13.70242 -20.64761,18.10638 -11.86896,6.21845 -24.34917,10.35181 -38.46339,12.37946 M 73.439226,204.08079 c 0.18262,-2.65209 -0.28205,-5.56585 0.6651,-7.9089 3.28957,-8.13768 3.58934,-16.85024 4.93267,-25.27713 2.59241,-16.26245 6.12733,-32.28673 10.29609,-48.1684 3.7524,-14.29555 8.74434,-28.230495 15.721984,-41.305202 5.33309,-9.993141 11.00329,-19.873367 21.60068,-25.487702 3.9866,-2.112037 5.88406,-1.392513 7.17732,3.122528 1.51661,5.294755 2.29769,10.690033 2.34253,16.254456 0.1987,24.657974 0.57185,49.31459 0.90392,73.97139 0.0314,2.33032 0.0603,4.67851 0.35456,6.98468 3.01507,23.62646 2.03948,47.48941 4.69851,71.21538 1.65035,14.72572 2.79521,29.70707 3.81597,44.59886 0.72026,10.50763 3.94053,20.84119 4.70153,31.34973 0.57792,7.98047 2.73005,15.59583 3.50331,23.46613 0.0802,0.81588 0.60223,2.04461 -1.19642,2.47619 -9.16007,-17.27197 -22.85166,-29.09646 -43.02337,-29.38965 -19.572464,-0.28448 -34.997144,9.38834 -47.142554,26.00986 0.34945,-3.18963 0.83667,-5.1282 0.72798,-7.03277 -1.07587,-18.85242 3.47577,-37.32181 3.75331,-56.07895 0.0368,-2.48609 0.23837,-4.99732 0.66037,-7.44574 2.88135,-16.71717 2.63576,-33.76935 5.50651,-51.35476 z"
   id="path1" />
</svg>
