<?xml version="1.0" encoding="UTF-8" standalone="no"?>
<svg
   version="1.1"
   id="Layer_1"
   x="0px"
   y="0px"
   width="100%"
   viewBox="0 0 272 448"
   enable-background="new 0 0 272 448"
   xml:space="preserve"
   sodipodi:docname="15.svg"
   inkscape:version="1.4.3 (0d15f75, 2025-12-25)"
   xmlns:inkscape="http://www.inkscape.org/namespaces/inkscape"
   xmlns:sodipodi="http://sodipodi.sourceforge.net/DTD/sodipodi-0.dtd"
   xmlns="http://www.w3.org/2000/svg"
   xmlns:svg="http://www.w3.org/2000/svg"><defs
   id="defs1" /><sodipodi:namedview
   id="namedview1"
   pagecolor="#ffffff"
   bordercolor="#000000"
   borderopacity="0.25"
   inkscape:showpageshadow="2"
   inkscape:pageopacity="0.0"
   inkscape:pagecheckerboard="0"
   inkscape:deskcolor="#d1d1d1"
   inkscape:zoom="1.7254464"
   inkscape:cx="135.90686"
   inkscape:cy="224"
   inkscape:window-width="1920"
   inkscape:window-height="991"
   inkscape:window-x="-9"
   inkscape:window-y="-9"
   inkscape:window-maximized="1"
   inkscape:current-layer="Layer_1" />
<path
   fill="#000000"
   opacity="1"
   stroke="none"
   d="m 166.16493,432.06097 c 11.59898,6.23462 23.5729,10.52317 36.40872,9.85456 24.1209,-1.25638 45.87019,-14.92627 51.96071,-41.54819 3.58265,-15.65979 2.01249,-30.25287 -5.8501,-44.21469 -1.93178,-3.43036 -1.63681,-7.40979 -2.60259,-11.05152 -3.00966,-11.34884 -5.61451,-22.802 -8.4518,-34.18695 -3.19326,-12.81329 -4.79629,-25.9924 -6.24787,-39.16702 -1.2277,-11.1427 -0.6728,-22.26544 -0.87007,-33.39715 -0.14185,-8.0048 1.13607,-15.8194 2.88557,-23.63334 1.83837,-8.21089 3.12995,-16.55151 4.45533,-24.86811 1.6036,-10.06244 6.38383,-19.10273 8.94749,-28.89191 4.7542,-18.15363 10.41704,-36.15452 9.371,-55.16513 -1.03735,-18.852898 -7.4002,-35.967561 -19.74873,-50.46161 -7.04193,-8.265445 -15.09596,-7.191547 -20.40308,2.37619 -1.73613,3.12991 -3.05223,6.492814 -4.64801,9.938256 0,-7.0019 -0.0205,-13.745239 0.005,-20.488411 0.0443,-11.918259 -6.17899,-20.026793 -16.54138,-24.455919 -8.34681,-3.567627 -16.35723,0.332756 -22.2894,10.294759 -9.13231,15.33601 -14.26777,32.422215 -20.8077,48.898663 -5.00033,12.597648 -9.62956,25.427312 -18.08586,37.491062 -0.0647,-7.77408 2.21938,-14.19059 4.41049,-20.408703 3.2385,-9.190491 5.14389,-18.590523 5.91268,-28.184456 0.42028,-5.244903 -0.1671,-10.832409 -4.33197,-14.83012 -4.67542,-4.487755 -10.65622,-4.297123 -18.81064,1.032952 -13.32912,8.712474 -24.690065,19.479274 -33.426927,32.9836 -10.22345,15.802087 -17.675827,32.685377 -20.544464,51.328967 -1.764405,11.46701 -2.203064,23.15358 -4.276658,34.55243 -1.592971,8.75688 0.569153,17.19758 0.36464,25.79194 -0.06738,2.83223 0.175293,5.77991 -0.629685,8.3981 -1.81311,5.89721 -1.390213,11.80332 -1.301803,17.80079 0.140304,9.51986 -2.770325,18.64805 -4.268128,27.96011 -2.285949,14.2121 -4.19693,28.50888 -7.179413,42.57629 -2.111236,9.9581 -2.320968,20.05799 -3.905243,30.02121 -0.998535,6.27945 -3.73561,12.02933 -5.898101,17.93466 -5.640442,15.40302 -6.164124,31.01206 -3.324311,47.07593 1.547715,8.75485 4.52501,16.9773 7.197831,25.33988 3.557327,11.13 11.430419,17.91342 22.537292,20.46808 11.30333,2.59985 22.683823,5.03829 34.5162,3.28637 18.54831,-2.7464 33.37207,-11.5231 44.62195,-26.45642 0.50002,-0.66372 1.02632,-1.31091 1.58216,-1.92816 0.32667,-0.36285 0.73593,-0.65137 1.54673,-1.35281 4.92516,7.22201 8.85884,15.35601 17.7206,19.28582 M 239.7922,71.919907 c 3.07137,8.048408 8.71096,15.408134 8.88307,24.207382 0.2814,14.386031 2.02997,28.872321 -2.25216,43.162691 -1.16836,3.89908 -2.85195,7.7879 -3.2905,11.9282 -1.21431,11.46424 -6.72787,21.71135 -9.28364,32.84972 -1.68679,7.35124 -3.41568,14.80049 -4.66802,22.16818 -0.86051,5.06243 -3.36474,9.67078 -3.29974,14.94886 0.21547,17.4951 0.0782,34.99447 0.28119,52.48983 0.0575,4.95719 -0.0428,10.17502 1.40983,14.80927 4.56444,14.56198 6.27322,29.74411 10.25529,44.42016 0.77727,2.86472 2.13158,5.63483 2.878,9.62687 -1.59878,-1.84046 -2.46374,-2.81433 -3.30223,-3.81046 -0.42723,-0.50757 -0.7903,-1.06872 -1.21042,-1.58273 -20.05867,-24.54154 -45.52095,-38.18445 -77.60359,-38.5105 -5.82851,-0.0592 -11.51926,-0.63614 -17.25249,-2.20026 -5.09456,-1.38989 -10.0954,-3.3269 -15.4805,-3.79907 -11.19754,-0.98172 -22.07428,-0.54568 -33.078231,2.65668 -13.72258,3.99353 -26.236969,9.43359 -35.580994,20.6539 -2.103225,2.52554 -4.082962,5.15396 -6.482208,8.19461 0.573899,-8.63831 1.238175,-16.5166 3.45607,-24.18597 0.778565,-2.69227 1.886673,-5.51722 1.722397,-8.21326 -0.598557,-9.82324 2.38031,-19.25049 4.857285,-28.24347 4.159591,-15.10202 4.316314,-30.50276 6.423538,-45.71098 2.440124,-17.61083 0.9449,-35.54783 2.949295,-53.29061 1.453308,-12.86453 2.771209,-25.68742 6.197769,-38.21689 1.779221,-6.5058 5.663345,-12.00411 8.262863,-18.0942 7.547119,-17.68111 19.854766,-31.345264 35.135896,-42.59312 3.51404,-2.586563 7.27231,-4.665398 11.74396,-5.061371 2.88877,-0.255806 5.0948,0.733696 5.38427,3.824127 0.45034,4.807892 0.85288,9.715508 -0.32957,14.433029 -3.94537,15.74057 -9.70693,30.993965 -11.55037,47.305995 -1.01146,8.95007 -2.33783,17.7933 -1.46344,26.82751 1.10548,11.42169 2.83517,22.70781 5.23758,33.95601 2.18866,10.24741 6.20019,19.61678 11.61319,28.33614 3.73193,6.01147 9.14306,6.72134 15.09367,2.78886 6.42804,-4.24797 9.80652,-11.07344 13.76731,-17.38536 7.68971,-12.25432 14.04995,-25.15239 19.79634,-38.42928 3.2416,-7.4896 5.50598,-15.26721 8.38948,-22.84521 5.48911,-14.42567 11.03588,-28.87018 13.92507,-44.049126 2.21345,-11.628776 4.87646,-23.028839 10.24264,-33.595253 2.77224,-5.458721 6.57291,-5.766155 10.47319,-1.053669 2.74303,3.314251 4.94705,7.074612 7.74891,11.282765 m -6.01562,273.931563 c 0.75654,1.09247 1.49096,2.20102 2.27291,3.27496 12.14928,16.68634 17.21901,34.70581 9.71754,54.78855 -2.35327,6.30011 -4.52124,12.76666 -10.10745,17.42926 -14.92298,12.45559 -31.68941,16.69763 -50.28512,10.90933 -7.48776,-2.33072 -15.50671,-4.39023 -21.35339,-10.26831 -6.50471,-6.5397 -12.25201,-14.23438 -9.39163,-23.76517 2.42735,-8.08795 2.75232,-15.9956 2.54133,-24.11389 -0.0674,-2.59488 -0.006,-5.66257 -3.05589,-7.53873 -3.17711,3.1651 -1.9438,7.0029 -2.12392,10.46238 -0.84652,16.25811 -6.77372,30.3114 -18.30889,41.80462 -19.88288,19.81052 -43.695011,18.99024 -68.360417,12.39176 -5.146377,-1.37674 -9.615066,-4.22129 -12.282043,-9.45362 -4.870285,-9.5549 -7.7341,-19.80337 -9.531631,-30.17798 -2.791153,-16.10922 -2.140961,-32.22735 4.776046,-47.44213 6.524582,-14.35157 14.177628,-27.75968 29.14209,-35.41098 5.825897,-2.97879 11.834198,-4.94364 18.014664,-6.78785 12.440371,-3.71203 24.990321,-3.97113 37.399201,-0.65066 9.66296,2.58569 19.17575,5.2785 29.32045,4.90686 6.13888,-0.22491 12.04665,0.79556 18.13442,2.36917 22.32546,5.77072 39.46058,18.54175 53.48173,37.27243 M 182.18926,160.73358 c -3.53305,9.69983 -8.66835,18.62276 -13.72302,27.54857 -4.08409,7.21191 -8.22389,14.45003 -13.59794,20.83797 -4.33853,5.15702 -7.40807,4.89833 -10.55222,-0.9103 -3.0879,-5.70475 -5.74519,-11.68458 -7.38899,-17.90916 -4.12987,-15.6385 -6.41716,-31.52988 -5.80629,-47.82076 0.27532,-7.34222 -0.51988,-14.69306 7.02741,-19.22063 0.26738,-0.16041 0.43336,-0.49985 0.62877,-0.76881 7.63572,-10.51079 13.68902,-21.88148 18.35328,-33.99165 6.30376,-16.36686 11.6658,-33.115112 19.7041,-48.777817 2.71242,-5.285183 5.74977,-10.338394 12.69424,-10.465195 6.7021,-0.122373 10.47701,4.324925 12.71935,9.639794 2.86775,6.797271 3.75087,14.117096 2.43958,21.535 -2.72009,15.387508 -5.86628,30.72842 -4.52155,46.520028 0.13843,1.62558 -0.07,3.37405 -0.53264,4.94311 -4.82371,16.36149 -9.24204,32.87263 -17.44408,48.83985 z"
   id="path1" />
</svg>
