<?xml version="1.0" encoding="UTF-8" standalone="no"?>
<svg
   version="1.1"
   id="Layer_1"
   x="0px"
   y="0px"
   width="100%"
   viewBox="0 0 240 400"
   enable-background="new 0 0 240 400"
   xml:space="preserve"
   sodipodi:docname="15.svg"
   inkscape:version="1.4.3 (0d15f75, 2025-12-25)"
   xmlns:inkscape="http://www.inkscape.org/namespaces/inkscape"
   xmlns:sodipodi="http://sodipodi.sourceforge.net/DTD/sodipodi-0.dtd"
   xmlns="http://www.w3.org/2000/svg"
   xmlns:svg="http://www.w3.org/2000/svg"><defs
   id="defs1" /><sodipodi:namedview
   id="namedview1"
   pagecolor="#ffffff"
   bordercolor="#000000"
   borderopacity="0.25"
   inkscape:showpageshadow="2"
   inkscape:pageopacity="0.0"
   inkscape:pagecheckerboard="0"
   inkscape:deskcolor="#d1d1d1"
   inkscape:zoom="1.9325"
   inkscape:cx="119.79301"
   inkscape:cy="200"
   inkscape:window-width="1920"
   inkscape:window-height="991"
   inkscape:window-x="-9"
   inkscape:window-y="-9"
   inkscape:window-maximized="1"
   inkscape:current-layer="Layer_1" />
<path
   fill="#000000"
   opacity="1"
   stroke="none"
   d="M 134.18682,35.876534 C 117.51,55.46917 104.61622,77.150795 92.530234,99.312057 85.823584,111.60957 79.277594,124.20948 75.53498,137.67087 c -2.628327,9.45363 -6.389985,18.56164 -8.179749,28.40695 -1.284134,7.0639 -2.032059,14.44174 -4.33226,21.59723 -1.983933,6.17174 -3.534256,13.32013 -3.470749,20.42773 0.04286,4.7964 -1.222336,9.89962 -3.096451,14.36438 -6.399765,15.24634 -10.074264,31.20464 -13.406921,47.28501 -1.565521,7.5538 -5.77385,14.14175 -7.850159,21.48568 -5.681503,20.09556 -7.104599,40.23639 0.749161,60.12513 8.534271,21.61193 28.06958,28.98733 48.585831,28.34106 10.872573,-0.34253 21.383317,-2.29425 30.251017,-9.7215 7.30414,-6.11761 11.41352,-14.14578 15.24378,-22.47781 0.75891,-1.65091 1.34167,-3.38275 2.36392,-5.99161 3.24368,7.03134 6.4558,13.21936 10.23457,19.11347 7.79682,12.16128 17.8486,21.27115 32.63824,23.02069 21.91385,2.59228 46.67669,-11.82352 51.89859,-35.5065 4.1407,-18.77936 3.73122,-37.15961 0.51231,-55.88059 -2.10496,-12.24237 -4.55549,-24.69729 -4.32916,-37.01063 0.44008,-23.94159 -1.6106,-48.01346 1.38644,-71.78591 1.33047,-10.55325 3.17486,-21.26735 4.96913,-31.81979 2.53262,-14.89494 4.19662,-30.27876 2.36997,-45.62544 -0.94277,-7.920733 -1.1872,-15.950755 -2.5603,-23.788935 -3.42427,-19.546959 -6.80799,-39.161847 -20.04615,-55.230936 -3.27575,-3.976252 -7.13728,-7.069653 -11.65392,-9.186814 -4.40618,-2.065391 -8.83318,-1.640781 -12.24868,2.378122 -3.97179,4.673451 -6.64897,9.864085 -6.49913,16.245354 0.26527,11.298355 0.73352,22.576271 1.38017,33.859619 0.66266,11.562867 -0.44475,23.486 -3.12056,35.0918 -3.5799,15.52713 -12.23621,28.09228 -21.75503,40.34826 -5.18021,6.6698 -9.76498,13.79065 -14.31128,21.79784 -1.20748,-3.02731 -0.14478,-5.41176 -0.0985,-7.75569 0.45546,-23.07715 5.19781,-45.42289 11.52755,-67.494638 3.11935,-10.877136 7.26842,-21.374145 11.56213,-31.835266 3.79635,-9.249374 6.59005,-18.867931 7.77857,-28.814682 0.63081,-5.279177 -0.44735,-10.795881 -5.17724,-13.775284 -4.67862,-2.947103 -9.61183,-1.713142 -14.42532,1.399979 -6.95309,4.496921 -12.8226,10.007414 -18.23796,16.619385 M 70.762809,174.88068 C 74.240882,156.32953 80.74578,138.6145 88.183097,121.49736 99.594809,95.233009 114.75719,70.914337 132.46659,48.336781 c 6.93912,-8.846608 13.5037,-18.202342 23.92686,-23.653782 5.87844,-3.074498 8.53741,-1.733498 8.52081,4.912702 -0.0249,9.961123 -2.85901,19.49251 -6.7791,28.346888 -4.23944,9.575676 -6.96533,19.609306 -10.74321,29.3003 -2.9416,7.545823 -4.70737,15.483491 -6.21637,23.498791 -1.80232,9.57338 -5.36806,18.81537 -5.14109,28.76383 0.0611,2.6792 -1.01077,5.23367 -1.32922,7.80252 -1.00022,8.06804 -1.70287,16.23974 -0.83402,24.35271 0.53279,4.97496 6.07923,6.62745 9.83597,3.22502 1.09308,-0.99001 1.92555,-2.29258 2.77539,-3.52242 7.16943,-10.37521 13.87656,-21.1055 21.5734,-31.07206 10.85916,-14.0614 16.19481,-30.26214 18.30303,-47.328855 1.35064,-10.933792 1.33494,-22.179779 0.57433,-33.359703 -0.57142,-8.399322 -1.9632,-16.839985 -0.49438,-25.371445 0.68188,-3.960653 1.26603,-7.860961 5.15853,-9.581565 3.94245,-1.742688 6.91621,1.22941 9.86161,3.368127 0.79892,0.580115 1.49606,1.335803 2.13058,2.101506 7.21705,8.7091 11.93259,18.950605 15.23083,29.463728 5.54148,17.663402 6.46283,36.182819 7.37264,54.607987 0.87413,17.70275 -2.25588,35.138 -4.64162,52.46704 -2.03281,14.76556 -1.67548,29.48169 -2.37223,44.17524 -0.83969,17.7081 -0.9545,35.54462 0.74518,53.28894 0.10282,1.07352 0.81079,2.5893 -0.81718,3.46949 -8.81797,-14.89603 -21.9175,-24.36072 -37.81041,-30.18084 -9.97012,-3.65109 -20.27049,-5.80354 -30.80593,-7.55645 -16.12789,-2.68338 -32.13788,-2.48032 -48.23702,-1.14446 -4.254604,0.35304 -8.652645,1.20828 -12.58424,2.81386 -12.861725,5.25243 -24.799301,12.01353 -33.933105,22.91006 -1.239441,1.47864 -2.430283,3.4547 -4.901154,3.76024 0.923477,-8.44664 4.166916,-15.92064 6.578995,-23.65622 1.772262,-5.68373 4.690979,-11.06143 5.271331,-17.07777 1.369416,-14.19652 6.302247,-27.72289 8.077012,-42.57951 m 26.269775,62.26594 c 0.955841,-0.27626 1.894745,-0.66547 2.870102,-0.81169 13.090114,-1.96222 26.266724,-1.29791 39.384204,-0.78224 14.71369,0.57843 29.15053,3.98318 42.61692,9.50775 19.75697,8.10521 33.31733,22.4492 37.87887,44.20192 3.69408,17.61612 3.6542,35.28497 1.46115,53.00302 -0.48092,3.88544 -1.67625,7.83881 -3.33123,11.39371 -5.22644,11.22653 -14.16819,18.64279 -26.11292,21.23791 -9.85564,2.14124 -19.81423,2.85193 -29.22694,-3.56253 -10.14193,-6.91137 -15.68177,-16.94916 -21.19818,-27.18451 -4.65827,-8.64309 -8.0511,-17.32699 -3.37725,-27.42553 1.35909,-2.93656 1.70427,-7.41782 -1.43887,-10.42127 -2.10726,0.29407 -2.13119,1.71283 -2.50187,2.9866 -3.79666,13.04633 -6.91287,26.32352 -12.07883,38.92084 -3.80154,9.27014 -9.36258,17.38898 -19.38797,20.81171 -10.815487,3.69253 -21.681545,5.10635 -33.234554,2.01721 -10.012146,-2.67712 -18.298615,-7.00415 -23.512818,-16.0239 -4.612365,-7.97857 -7.102005,-16.50003 -7.575058,-25.96649 -0.881698,-17.64389 1.418473,-34.60061 9.426621,-50.30255 10.379501,-20.35162 25.649017,-35.45874 49.338623,-41.59996 z"
   id="path1" />
</svg>
