<?xml version="1.0" encoding="UTF-8" standalone="no"?>
<svg
   version="1.1"
   id="Layer_1"
   x="0px"
   y="0px"
   width="100%"
   viewBox="0 0 224 384"
   enable-background="new 0 0 224 384"
   xml:space="preserve"
   sodipodi:docname="16.svg"
   inkscape:version="1.4.3 (0d15f75, 2025-12-25)"
   xmlns:inkscape="http://www.inkscape.org/namespaces/inkscape"
   xmlns:sodipodi="http://sodipodi.sourceforge.net/DTD/sodipodi-0.dtd"
   xmlns="http://www.w3.org/2000/svg"
   xmlns:svg="http://www.w3.org/2000/svg"><defs
   id="defs1" /><sodipodi:namedview
   id="namedview1"
   pagecolor="#ffffff"
   bordercolor="#000000"
   borderopacity="0.25"
   inkscape:showpageshadow="2"
   inkscape:pageopacity="0.0"
   inkscape:pagecheckerboard="0"
   inkscape:deskcolor="#d1d1d1"
   inkscape:zoom="2.0130208"
   inkscape:cx="112.0207"
   inkscape:cy="192"
   inkscape:window-width="1920"
   inkscape:window-height="991"
   inkscape:window-x="-9"
   inkscape:window-y="-9"
   inkscape:window-maximized="1"
   inkscape:current-layer="Layer_1" />
<path
   fill="#000000"
   opacity="1"
   stroke="none"
   d="m 24.717744,339.53174 c 2.324799,2.14319 1.679626,5.03573 2.774475,7.24716 6.864533,13.86536 17.597641,22.14789 32.921417,25.61108 17.30954,3.91196 33.309418,0.72995 48.888154,-6.35809 7.76553,-3.53317 12.93525,-10.16232 17.48917,-17.77148 4.45539,4.63452 7.09604,9.85959 11.13731,14.02774 22.0642,22.75714 49.99512,23.43924 72.97326,2.14047 13.1162,-12.15762 16.46657,-26.90888 12.57715,-44.49231 -2.86559,-12.95487 -5.66493,-25.88071 -9.57746,-38.55237 -0.8789,-2.84656 -1.82722,-5.78726 -3.38047,-8.28921 -5.51424,-8.88233 -6.34541,-19.06453 -8.73559,-28.86513 -3.52958,-14.47251 -2.56337,-29.49266 -5.42776,-43.86026 -2.85208,-14.30585 -1.32646,-28.50536 -1.69486,-42.66379 -0.306,-11.76063 1.51774,-23.80566 2.81933,-35.62939 1.16451,-10.57856 2.89775,-21.35181 5.87577,-31.635807 3.34816,-11.56221 5.35699,-23.489059 9.8987,-34.74876 3.41845,-8.474918 0.94608,-17.143898 -5.17662,-21.706814 -7.779,-5.797279 -16.72173,-5.636617 -25.56936,0.0126 -4.88706,3.120385 -8.84205,7.203721 -12.03675,11.781403 -11.78104,16.881058 -23.69374,33.707123 -33.30841,53.41198 0,-6.707245 -0.32845,-12.356392 0.0842,-17.950882 0.50171,-6.802208 0.5683,-13.623848 1.32102,-20.429405 0.51515,-4.6577 -1.00505,-9.074326 -5.74696,-11.818539 -5.91762,-3.424606 -10.82225,-0.729008 -15.19859,2.51812 -12.2737,9.106762 -21.93213,20.757099 -30.866899,33.057361 -12.716599,17.506577 -21.474457,36.962307 -28.809509,57.188387 -2.433747,6.71097 -3.645478,13.86162 -6.077393,20.3372 -4.147842,11.04463 -4.370438,22.62901 -7.219528,33.77387 -1.27002,4.96794 -0.265778,10.23408 -0.638321,15.39204 -1.277649,17.68951 -4.521591,35.10524 -6.497482,52.68604 -0.758423,6.7482 0.0023,13.54534 -1.442032,20.36663 -1.772095,8.36933 -5.38913,16.03888 -7.873795,24.11786 -1.225998,3.98636 -0.991379,8.2808 -3.237854,12.2945 -0.244293,6.29721 -0.244293,12.31836 -0.244293,18.8078 M 166.29393,64.066078 c 0.83569,-1.24284 1.63159,-2.514709 2.51357,-3.723785 5.45449,-7.477322 9.63536,-16.015995 18.15338,-20.894684 5.42096,-3.104847 10.94817,-3.033901 16.26756,-0.522205 5.04401,2.381672 3.49323,7.435249 3.34221,11.590358 -0.36527,10.049961 -5.15583,19.076432 -6.8545,28.928604 -2.37855,13.795395 -6.74067,27.237994 -7.50615,41.361844 -0.60196,11.10691 -3.03783,22.02477 -2.73078,33.26427 0.52537,19.23105 -0.6136,38.39323 2.63859,57.66904 1.77648,10.52923 3.38337,21.21386 4.90668,31.85156 0.41439,2.8938 1.96343,5.85313 0.87377,9.57797 -2.44885,-2.53566 -4.2147,-4.80261 -6.3948,-6.55389 -22.25841,-17.88031 -47.99169,-23.07041 -75.80384,-20.55689 -3.14737,0.28444 -6.30356,0.59883 -9.45916,0.64157 -10.682704,0.14469 -20.772518,3.21546 -30.306423,7.42655 -15.188125,6.70852 -24.575607,19.34537 -31.56723,33.95448 -0.462952,0.96735 -0.389877,2.39462 -2.287689,2.41547 -0.953461,-3.30176 0.470276,-6.52857 0.363418,-9.73896 -0.224594,-6.74768 3.117005,-12.74104 3.421326,-19.44854 0.518494,-11.42803 2.260559,-22.80722 3.689911,-34.14417 1.565125,-12.41363 4.34787,-24.73457 7.513275,-36.94311 3.98407,-15.36594 7.47023,-30.86393 14.017365,-45.39193 8.793228,-19.51202 20.155105,-37.431528 34.602907,-53.281351 5.03631,-5.525032 10.14946,-11.016785 16.53303,-15.12521 2.49485,-1.605679 5.09668,-1.845703 7.58872,-0.727634 2.85794,1.282238 2.27455,4.035511 2.05698,6.570194 -1.19533,13.925747 -2.52694,27.844181 -2.42347,41.847911 0.0147,1.98532 0.0241,4.06442 -0.50968,5.94528 -4.36407,15.37861 -6.7107,31.14353 -9.19073,46.88588 -0.26779,1.69978 -0.57365,3.61479 1.50203,4.2032 2.17489,0.6165 3.76614,-0.93504 3.9585,-2.83392 0.4759,-4.69811 2.92939,-8.87561 3.46728,-13.44447 1.30081,-11.04923 5.42153,-21.28835 9.44731,-31.38991 6.96682,-17.481271 17.07191,-33.358964 28.17664,-49.413522 M 211.69221,299.5369 c 1.57424,7.4671 3.05257,14.95599 4.74159,22.39706 4.25049,18.7258 -1.8128,33.27295 -18.3168,43.32806 -14.94298,9.10401 -29.92256,9.68787 -45.0468,0.21189 -8.11411,-5.0838 -13.82654,-12.16046 -18.97616,-20.08011 -2.73876,-4.21198 -3.76874,-8.07102 -1.95347,-12.57346 2.95799,-7.3367 4.69153,-15.19165 9.19174,-21.88312 1.04122,-1.54821 2.28639,-3.45236 0.23742,-4.79214 -1.90633,-1.24649 -2.91616,0.91269 -3.89854,2.12167 -6.9027,8.49521 -10.5754,18.66108 -14.02705,28.77918 -4.38462,12.85309 -12.28328,22.47989 -25.244343,26.13571 -14.151032,3.99149 -28.953583,5.16821 -43.211075,0.276 -10.114701,-3.47073 -17.299317,-10.64954 -21.278733,-20.96429 -4.270156,-11.06842 -1.892578,-21.89539 1.56778,-32.22071 4.471878,-13.34359 8.737778,-26.82049 15.260132,-39.45553 5.833237,-11.30011 12.725204,-21.60771 23.866302,-28.08884 13.122834,-7.63399 28.131717,-8.65475 42.739747,-10.31552 14.53163,-1.65205 28.89646,0.6743 42.75782,5.23236 13.11967,4.31416 24.77443,10.88132 33.64365,22.05542 9.22107,11.6174 14.13401,24.98767 17.94679,39.83637 z"
   id="path1" />
</svg>
