<svg version="1.1" id="Layer_1" xmlns="http://www.w3.org/2000/svg" xmlns:xlink="http://www.w3.org/1999/xlink" x="0px" y="0px"
	 width="100%" viewBox="0 0 240 400" enable-background="new 0 0 240 400" xml:space="preserve">
<path fill="#000000" opacity="1.000000" stroke="none" 
	d="
M129.152664,35.876534 
	C145.829483,55.469170 158.723267,77.150795 170.809250,99.312057 
	C177.515900,111.609566 184.061890,124.209480 187.804504,137.670868 
	C190.432831,147.124496 194.194489,156.232513 195.984253,166.077820 
	C197.268387,173.141724 198.016312,180.519562 200.316513,187.675049 
	C202.300446,193.846786 203.850769,200.995178 203.787262,208.102783 
	C203.744400,212.899185 205.009598,218.002396 206.883713,222.467163 
	C213.283478,237.713501 216.957977,253.671799 220.290634,269.752167 
	C221.856155,277.305969 226.064484,283.893921 228.140793,291.237854 
	C233.822296,311.333405 235.245392,331.474243 227.391632,351.362976 
	C218.857361,372.974915 199.322052,380.350311 178.805801,379.704041 
	C167.933228,379.361511 157.422485,377.409790 148.554779,369.982544 
	C141.250641,363.864929 137.141266,355.836761 133.311005,347.504730 
	C132.552094,345.853821 131.969330,344.121979 130.947083,341.513123 
	C127.703400,348.544464 124.491287,354.732483 120.712509,360.626587 
	C112.915695,372.787872 102.863914,381.897736 88.074272,383.647278 
	C66.160423,386.239563 41.397579,371.823761 36.175682,348.140778 
	C32.034985,329.361420 32.444466,310.981171 35.663372,292.260193 
	C37.768337,280.017822 40.218868,267.562897 39.992531,255.249557 
	C39.552452,231.307968 41.603134,207.236099 38.606091,183.463654 
	C37.275623,172.910400 35.431236,162.196304 33.636967,151.643860 
	C31.104340,136.748917 29.440348,121.365097 31.266993,106.018417 
	C32.209759,98.097687 32.454189,90.067665 33.827297,82.229485 
	C37.251564,62.682526 40.635284,43.067638 53.873444,26.998549 
	C57.149189,23.022297 61.010727,19.928896 65.527359,17.811735 
	C69.933540,15.746344 74.360542,16.170954 77.776047,20.189857 
	C81.747833,24.863308 84.425011,30.053942 84.275177,36.435211 
	C84.009903,47.733566 83.541656,59.011482 82.895004,70.294830 
	C82.232346,81.857697 83.339752,93.780830 86.015564,105.386635 
	C89.595467,120.913757 98.251770,133.478912 107.770592,145.734894 
	C112.950806,152.404694 117.535576,159.525543 122.081871,167.532730 
	C123.289352,164.505417 122.226654,162.120972 122.180397,159.777039 
	C121.724930,136.699890 116.982582,114.354149 110.652847,92.282402 
	C107.533493,81.405266 103.384422,70.908257 99.090714,60.447136 
	C95.294365,51.197762 92.500664,41.579205 91.312141,31.632454 
	C90.681335,26.353277 91.759491,20.836573 96.489380,17.857170 
	C101.168007,14.910067 106.101212,16.144028 110.914703,19.257149 
	C117.867798,23.754070 123.737305,29.264563 129.152664,35.876534 
M192.576675,174.880676 
	C189.098602,156.329529 182.593704,138.614502 175.156387,121.497360 
	C163.744675,95.233009 148.582291,70.914337 130.872894,48.336781 
	C123.933777,39.490173 117.369194,30.134439 106.946037,24.682999 
	C101.067589,21.608501 98.408623,22.949501 98.425224,29.595701 
	C98.450104,39.556824 101.284233,49.088211 105.204323,57.942589 
	C109.443764,67.518265 112.169655,77.551895 115.947533,87.242889 
	C118.889137,94.788712 120.654900,102.726379 122.163902,110.741684 
	C123.966225,120.315063 127.531967,129.557053 127.304993,139.505508 
	C127.243866,142.184708 128.315765,144.739182 128.634216,147.308029 
	C129.634430,155.376068 130.337082,163.547775 129.468231,171.660736 
	C128.935440,176.635696 123.389008,178.288193 119.632263,174.885757 
	C118.539185,173.895752 117.706711,172.593185 116.856873,171.363342 
	C109.687447,160.988129 102.980316,150.257843 95.283470,140.291275 
	C84.424316,126.229881 79.088661,110.029137 76.980446,92.962425 
	C75.629807,82.028633 75.645508,70.782646 76.406113,59.602722 
	C76.977531,51.203400 78.369316,42.762737 76.900497,34.231277 
	C76.218613,30.270624 75.634460,26.370316 71.741966,24.649712 
	C67.799515,22.907024 64.825752,25.879122 61.880356,28.017839 
	C61.081436,28.597954 60.384296,29.353642 59.749771,30.119345 
	C52.532726,38.828445 47.817188,49.069950 44.518940,59.583073 
	C38.977459,77.246475 38.056110,95.765892 37.146301,114.191063 
	C36.272171,131.893814 39.402187,149.329056 41.787926,166.658096 
	C43.820736,181.423660 43.463402,196.139786 44.160149,210.833344 
	C44.999840,228.541443 45.114658,246.377960 43.414978,264.122284 
	C43.312149,265.195801 42.604183,266.711578 44.232151,267.591766 
	C53.050125,252.695740 66.149651,243.231049 82.042564,237.410934 
	C92.012680,233.759842 102.313049,231.607391 112.848495,229.854477 
	C128.976379,227.171097 144.986374,227.374161 161.085510,228.710022 
	C165.340118,229.063065 169.738159,229.918304 173.669754,231.523880 
	C186.531479,236.776306 198.469055,243.537415 207.602859,254.433945 
	C208.842300,255.912582 210.033142,257.888641 212.504013,258.194183 
	C211.580536,249.747543 208.337097,242.273544 205.925018,234.537964 
	C204.152756,228.854233 201.234039,223.476532 200.653687,217.460190 
	C199.284271,203.263672 194.351440,189.737305 192.576675,174.880676 
M166.306900,237.146622 
	C165.351059,236.870361 164.412155,236.481155 163.436798,236.334930 
	C150.346680,234.372711 137.170074,235.037018 124.052589,235.552689 
	C109.338905,236.131119 94.902061,239.535873 81.435669,245.060440 
	C61.678703,253.165649 48.118343,267.509644 43.556808,289.262360 
	C39.862720,306.878479 39.902607,324.547333 42.095650,342.265381 
	C42.576572,346.150818 43.771904,350.104187 45.426888,353.659088 
	C50.653328,364.885620 59.595078,372.301880 71.539803,374.897003 
	C81.395447,377.038239 91.354034,377.748932 100.766739,371.334473 
	C110.908669,364.423096 116.448509,354.385315 121.964928,344.149963 
	C126.623192,335.506866 130.016022,326.822968 125.342178,316.724426 
	C123.983086,313.787872 123.637901,309.306610 126.781044,306.303162 
	C128.888306,306.597229 128.912231,308.015991 129.282913,309.289764 
	C133.079575,322.336090 136.195786,335.613281 141.361740,348.210602 
	C145.163284,357.480743 150.724319,365.599579 160.749710,369.022308 
	C171.565201,372.714844 182.431259,374.128662 193.984268,371.039520 
	C203.996414,368.362396 212.282883,364.035370 217.497086,355.015625 
	C222.109451,347.037048 224.599091,338.515594 225.072144,329.049133 
	C225.953842,311.405243 223.653671,294.448517 215.645523,278.746582 
	C205.266022,258.394958 189.996506,243.287842 166.306900,237.146622 
z"/>
</svg>