<svg version="1.1" id="Layer_1" xmlns="http://www.w3.org/2000/svg" xmlns:xlink="http://www.w3.org/1999/xlink" x="0px" y="0px"
	 width="100%" viewBox="0 0 272 448" enable-background="new 0 0 272 448" xml:space="preserve">
<path fill="#000000" opacity="1.000000" stroke="none" 
	d="
M124.950211,432.060974 
	C113.351227,438.295593 101.377312,442.584137 88.541489,441.915527 
	C64.420593,440.659149 42.671299,426.989258 36.580776,400.367340 
	C32.998127,384.707550 34.568287,370.114471 42.430882,356.152649 
	C44.362663,352.722290 44.067688,348.742859 45.033466,345.101135 
	C48.043129,333.752289 50.647980,322.299133 53.485275,310.914185 
	C56.678528,298.100891 58.281563,284.921783 59.733139,271.747162 
	C60.960838,260.604462 60.405941,249.481720 60.603210,238.350006 
	C60.745064,230.345215 59.467136,222.530609 57.717644,214.716675 
	C55.879269,206.505783 54.587692,198.165161 53.262314,189.848557 
	C51.658707,179.786118 46.878483,170.745834 44.314819,160.956650 
	C39.560623,142.803024 33.897785,124.802132 34.943817,105.791519 
	C35.981171,86.938622 42.344017,69.823959 54.692551,55.329910 
	C61.734482,47.064465 69.788513,48.138363 75.095634,57.706100 
	C76.831764,60.836010 78.147865,64.198914 79.743637,67.644356 
	C79.743637,60.642456 79.764191,53.899117 79.739105,47.155945 
	C79.694756,35.237686 85.918091,27.129152 96.280479,22.700026 
	C104.627289,19.132399 112.637711,23.032782 118.569885,32.994785 
	C127.702187,48.330795 132.837646,65.417000 139.377579,81.893448 
	C144.377914,94.491096 149.007141,107.320763 157.463440,119.384506 
	C157.528152,111.610428 155.244064,105.193924 153.052948,98.975807 
	C149.814453,89.785316 147.909058,80.385284 147.140274,70.791351 
	C146.719986,65.546448 147.307373,59.958942 151.472244,55.961231 
	C156.147659,51.473476 162.128464,51.664108 170.282883,56.994183 
	C183.612000,65.706657 194.972946,76.473457 203.709808,89.977783 
	C213.933258,105.779869 221.385635,122.663155 224.254272,141.306747 
	C226.018677,152.773758 226.457336,164.460327 228.530930,175.859177 
	C230.123901,184.616058 227.961777,193.056763 228.166290,201.651123 
	C228.233673,204.483353 227.990997,207.431030 228.795975,210.049225 
	C230.609085,215.946426 230.186188,221.852539 230.097778,227.850006 
	C229.957474,237.369873 232.868103,246.498062 234.365906,255.810120 
	C236.651855,270.022217 238.562836,284.319000 241.545319,298.386414 
	C243.656555,308.344513 243.866287,318.444397 245.450562,328.407623 
	C246.449097,334.687073 249.186172,340.436951 251.348663,346.342285 
	C256.989105,361.745300 257.512787,377.354340 254.672974,393.418213 
	C253.125259,402.173065 250.147964,410.395508 247.475143,418.758087 
	C243.917816,429.888092 236.044724,436.671509 224.937851,439.226166 
	C213.634521,441.826019 202.254028,444.264465 190.421646,442.512543 
	C171.873337,439.766144 157.049576,430.989441 145.799698,416.056122 
	C145.299683,415.392395 144.773376,414.745209 144.217545,414.127960 
	C143.890869,413.765106 143.481613,413.476593 142.670807,412.775146 
	C137.745651,419.997162 133.811966,428.131165 124.950211,432.060974 
M51.322945,71.919907 
	C48.251575,79.968315 42.611984,87.328041 42.439869,96.127289 
	C42.158470,110.513321 40.409904,124.999611 44.692028,139.289978 
	C45.860386,143.189056 47.543976,147.077881 47.982529,151.218185 
	C49.196842,162.682419 54.710403,172.929535 57.266171,184.067902 
	C58.952957,191.419144 60.681847,198.868393 61.934193,206.236084 
	C62.794701,211.298508 65.298935,215.906860 65.233932,221.184937 
	C65.018463,238.680038 65.155678,256.179413 64.952744,273.674774 
	C64.895248,278.631958 64.995506,283.849792 63.542915,288.484039 
	C58.978474,303.046021 57.269688,318.228149 53.287621,332.904205 
	C52.510349,335.768921 51.156044,338.539032 50.409622,342.531067 
	C52.008400,340.690613 52.873356,339.716736 53.711853,338.720612 
	C54.139084,338.213043 54.502148,337.651886 54.922272,337.137878 
	C74.980942,312.596344 100.443222,298.953430 132.525864,298.627380 
	C138.354370,298.568146 144.045120,297.991241 149.778351,296.427124 
	C154.872910,295.037231 159.873749,293.100220 165.258850,292.628052 
	C176.456390,291.646332 187.333130,292.082367 198.337082,295.284729 
	C212.059662,299.278259 224.574051,304.718323 233.918076,315.938629 
	C236.021301,318.464172 238.001038,321.092590 240.400284,324.133240 
	C239.826385,315.494934 239.162109,307.616638 236.944214,299.947266 
	C236.165649,297.255005 235.057541,294.430054 235.221817,291.734009 
	C235.820374,281.910767 232.841507,272.483521 230.364532,263.490540 
	C226.204941,248.388519 226.048218,232.987778 223.940994,217.779556 
	C221.500870,200.168732 222.996094,182.231735 220.991699,164.488953 
	C219.538391,151.624420 218.220490,138.801529 214.793930,126.272057 
	C213.014709,119.766258 209.130585,114.267952 206.531067,108.177864 
	C198.983948,90.496750 186.676300,76.832596 171.395172,65.584740 
	C167.881134,62.998177 164.122864,60.919342 159.651215,60.523369 
	C156.762436,60.267563 154.556412,61.257065 154.266937,64.347496 
	C153.816605,69.155388 153.414062,74.063004 154.596512,78.780525 
	C158.541885,94.521095 164.303436,109.774490 166.146881,126.086517 
	C167.158340,135.036591 168.484711,143.879822 167.610321,152.914032 
	C166.504837,164.335724 164.775146,175.621841 162.372742,186.870041 
	C160.184082,197.117447 156.172546,206.486816 150.759552,215.206177 
	C147.027618,221.217651 141.616486,221.927521 135.665878,217.995041 
	C129.237839,213.747070 125.859360,206.921600 121.898575,200.609680 
	C114.208862,188.355362 107.848618,175.457291 102.102226,162.180405 
	C98.860626,154.690796 96.596252,146.913193 93.712746,139.335190 
	C88.223640,124.909515 82.676872,110.465012 79.787682,95.286064 
	C77.574234,83.657288 74.911224,72.257225 69.545044,61.690811 
	C66.772804,56.232090 62.972130,55.924656 59.071850,60.637142 
	C56.328819,63.951393 54.124802,67.711754 51.322945,71.919907 
M57.338562,345.851471 
	C56.582024,346.943939 55.847603,348.052490 55.065655,349.126434 
	C42.916370,365.812775 37.846645,383.832245 45.348114,403.914978 
	C47.701382,410.215088 49.869350,416.681641 55.455563,421.344238 
	C70.378540,433.799835 87.144974,438.041870 105.740677,432.253571 
	C113.228439,429.922852 121.247391,427.863342 127.094070,421.985260 
	C133.598785,415.445557 139.346085,407.750885 136.485703,398.220093 
	C134.058350,390.132141 133.733383,382.224487 133.944366,374.106201 
	C134.011810,371.511322 133.949982,368.443634 137.000259,366.567474 
	C140.177368,369.732574 138.944061,373.570374 139.124176,377.029846 
	C139.970703,393.287964 145.897903,407.341248 157.433075,418.834473 
	C177.315948,438.644989 201.128082,437.824707 225.793488,431.226227 
	C230.939865,429.849487 235.408554,427.004944 238.075531,421.772614 
	C242.945816,412.217712 245.809631,401.969238 247.607162,391.594635 
	C250.398315,375.485413 249.748123,359.367279 242.831116,344.152496 
	C236.306534,329.800934 228.653488,316.392822 213.689026,308.741516 
	C207.863129,305.762726 201.854828,303.797882 195.674362,301.953674 
	C183.233994,298.241638 170.684036,297.982544 158.275162,301.303009 
	C148.612198,303.888702 139.099411,306.581512 128.954712,306.209869 
	C122.815826,305.984955 116.908058,307.005432 110.820290,308.579041 
	C88.494835,314.349762 71.359711,327.120789 57.338562,345.851471 
M108.925880,160.733582 
	C112.458931,170.433411 117.594231,179.356339 122.648903,188.282150 
	C126.732986,195.494064 130.872787,202.732178 136.246841,209.120117 
	C140.585373,214.277145 143.654907,214.018448 146.799057,208.209824 
	C149.886963,202.505066 152.544250,196.525238 154.188049,190.300659 
	C158.317917,174.662155 160.605209,158.770782 159.994339,142.479904 
	C159.719025,135.137680 160.514221,127.786842 152.966934,123.259270 
	C152.699554,123.098862 152.533569,122.759422 152.338165,122.490456 
	C144.702438,111.979668 138.649139,100.608978 133.984879,88.498810 
	C127.681122,72.131950 122.319077,55.383698 114.280785,39.720993 
	C111.568359,34.435810 108.531006,29.382599 101.586540,29.255798 
	C94.884438,29.133425 91.109528,33.580723 88.867195,38.895592 
	C85.999443,45.692863 85.116325,53.012688 86.427612,60.430592 
	C89.147705,75.818100 92.293892,91.159012 90.949165,106.950615 
	C90.810730,108.576202 91.019203,110.324669 91.481796,111.893730 
	C96.305511,128.255219 100.723839,144.766357 108.925880,160.733582 
z"/>
</svg>