<svg version="1.1" id="Layer_1" xmlns="http://www.w3.org/2000/svg" xmlns:xlink="http://www.w3.org/1999/xlink" x="0px" y="0px"
	 width="100%" viewBox="0 0 176 496" enable-background="new 0 0 176 496" xml:space="preserve">
<path fill="#000000" opacity="1.000000" stroke="none" 
	d="
M31.781311,385.050903 
	C38.277180,368.006989 43.169773,351.019196 44.726776,333.123047 
	C45.758987,321.258789 46.048313,309.336609 48.578564,297.575317 
	C53.551140,274.461487 53.208210,250.705795 56.347744,227.339676 
	C58.003105,215.019592 56.120533,202.416946 57.780029,189.972473 
	C59.920994,173.917496 58.990326,157.704803 59.602051,141.570206 
	C60.498016,117.938492 60.333637,94.268311 60.925686,70.622147 
	C61.078693,64.511108 62.048409,58.373920 65.302940,52.874454 
	C68.290001,47.826942 73.002510,46.070637 78.304893,48.298920 
	C86.936264,51.926178 92.968155,58.520107 98.063248,66.033340 
	C107.829514,80.434708 114.105972,96.418259 119.358788,112.919266 
	C123.540916,126.056824 125.997185,139.600052 129.497070,152.893677 
	C130.966141,158.473709 131.468445,164.315445 132.303635,170.053741 
	C134.283478,183.656754 136.557007,197.230881 138.016693,210.890961 
	C139.001587,220.107941 139.213943,229.356171 140.527740,238.616516 
	C142.315765,251.219742 141.287369,264.134308 143.466599,276.844971 
	C145.328659,287.705658 143.970291,298.804352 144.452911,309.776978 
	C145.107208,324.653137 147.822266,339.135437 152.110657,353.506134 
	C156.630798,368.653442 162.295563,383.360901 167.442261,398.259613 
	C170.863235,408.162659 173.453827,418.162903 175.552124,428.421417 
	C178.646378,443.548950 172.007477,454.042206 161.260269,463.271576 
	C150.067001,472.884003 137.618210,480.509857 124.312370,486.682465 
	C117.457314,489.862518 109.929939,491.259644 102.371765,490.109009 
	C80.733055,486.814789 60.340736,480.213409 42.929539,466.296997 
	C33.070015,458.416534 29.865032,447.428925 28.899334,435.513824 
	C28.415289,429.541473 28.396826,423.532959 28.030336,417.549194 
	C27.361235,406.624603 28.940069,395.970215 31.781311,385.050903 
M99.409950,482.028107 
	C106.549164,482.818939 113.520409,483.161407 120.485367,480.240784 
	C133.349930,474.846252 144.941376,467.436646 155.611328,458.636353 
	C162.986984,452.553070 169.388626,445.764465 168.401123,434.762329 
	C166.838730,417.354767 160.882874,401.214874 155.015823,385.015320 
	C151.299759,374.754883 147.244278,364.597778 144.712784,353.958710 
	C141.695984,341.279999 136.926376,329.619019 127.120026,320.513031 
	C114.891785,309.158112 100.477997,304.334167 84.423729,308.845612 
	C67.351372,313.643066 58.906170,327.576904 53.295944,343.239838 
	C49.550694,353.695953 46.626156,364.443329 43.177917,375.009338 
	C39.683411,385.717072 35.282791,396.122589 35.916252,407.831970 
	C36.455528,417.800446 36.183506,427.812531 36.281616,437.805206 
	C36.330235,442.757904 38.021835,447.249207 40.298946,451.542267 
	C44.883926,460.186401 52.540825,465.244690 60.946552,469.648651 
	C72.815521,475.867096 85.295731,480.000458 99.409950,482.028107 
M130.752518,204.080795 
	C130.569901,201.428696 131.034576,198.514938 130.087418,196.171890 
	C126.797852,188.034210 126.498085,179.321655 125.154747,170.894760 
	C122.562340,154.632309 119.027420,138.608032 114.858665,122.726357 
	C111.106262,108.430809 106.114319,94.495865 99.136681,81.421158 
	C93.803589,71.428017 88.133385,61.547791 77.535995,55.933456 
	C73.549393,53.821419 71.651939,54.540943 70.358673,59.055984 
	C68.842064,64.350739 68.060982,69.746017 68.016144,75.310440 
	C67.817451,99.968414 67.444298,124.625031 67.112228,149.281830 
	C67.080833,151.612152 67.051971,153.960342 66.757668,156.266510 
	C63.742599,179.892975 64.718185,203.755920 62.059155,227.481888 
	C60.408806,242.207611 59.263943,257.188965 58.243187,272.080750 
	C57.522930,282.588379 54.302654,292.921936 53.541656,303.430481 
	C52.963734,311.410950 50.811611,319.026306 50.038345,326.896606 
	C49.958187,327.712494 49.436119,328.941223 51.234768,329.372803 
	C60.394836,312.100830 74.086426,300.276337 94.258133,299.983154 
	C113.830597,299.698669 129.255280,309.371490 141.400696,325.993011 
	C141.051239,322.803375 140.564026,320.864807 140.672714,318.960236 
	C141.748581,300.107819 137.196945,281.638428 136.919403,262.881287 
	C136.882629,260.395203 136.681030,257.883972 136.259033,255.435547 
	C133.377686,238.718384 133.623276,221.666199 130.752518,204.080795 
z"/>
</svg>