<svg version="1.1" id="Layer_1" xmlns="http://www.w3.org/2000/svg" xmlns:xlink="http://www.w3.org/1999/xlink" x="0px" y="0px"
	 width="100%" viewBox="0 0 192 496" enable-background="new 0 0 192 496" xml:space="preserve">
<path fill="#000000" opacity="1.000000" stroke="none" 
	d="
M155.338440,465.324005 
	C146.769699,475.402985 137.818985,484.418152 126.398994,490.819092 
	C114.371582,497.560516 101.816093,497.410461 89.748680,492.722412 
	C70.136841,485.103455 52.960918,473.367615 39.335594,457.114227 
	C26.762468,442.116028 23.358673,424.927124 27.253271,405.704651 
	C29.932125,392.482727 33.543133,379.533844 37.312740,366.655945 
	C40.598022,355.432587 42.395203,343.920959 43.063278,332.538330 
	C43.978062,316.952271 47.082706,301.704590 48.208439,286.248260 
	C48.919643,276.483398 50.345318,266.791260 50.896313,256.997681 
	C51.376518,248.462341 51.211403,239.835526 53.210564,231.296158 
	C55.177231,222.895615 53.456326,214.051270 54.673206,205.427475 
	C58.085155,181.247742 56.301418,156.869781 57.229115,132.595840 
	C58.032303,111.579834 55.578129,90.747437 55.060669,69.819275 
	C54.907784,63.635979 56.140564,57.605263 59.560867,52.196747 
	C63.499569,45.968491 69.183578,44.222397 75.852966,47.352921 
	C91.592361,54.740768 102.189713,67.069832 110.058716,82.260529 
	C115.579796,92.918701 119.715546,104.130096 123.927475,115.294815 
	C126.894890,123.160629 127.701630,131.694870 130.337173,139.739807 
	C132.386475,145.995224 134.264038,152.436798 135.064194,158.937653 
	C135.997894,166.523499 138.006241,173.857758 139.484482,181.287262 
	C140.804428,187.921371 141.879410,194.543030 142.820282,201.231873 
	C144.433975,212.704071 146.131058,224.217316 148.451447,235.521347 
	C150.391602,244.973068 148.864456,254.791702 152.432465,263.959106 
	C153.712906,267.248962 153.159622,270.883270 153.129044,274.375854 
	C153.082214,279.723358 154.206894,284.881226 155.085068,290.131195 
	C156.751389,300.092773 158.306335,310.219971 158.279617,320.274078 
	C158.255600,329.307678 161.199036,337.866058 160.808044,346.884796 
	C160.247849,359.806396 166.656570,371.212036 169.475647,383.402863 
	C172.592484,396.881256 177.387924,410.131531 175.488571,424.481628 
	C173.388611,440.347198 165.456467,453.128387 155.338440,465.324005 
M167.653824,407.149200 
	C165.819260,399.231659 164.586319,391.112488 162.015594,383.441650 
	C157.657379,370.436981 153.957321,357.169464 146.346634,345.380829 
	C137.455093,331.608185 127.006439,319.603333 112.534767,311.566467 
	C99.478836,304.315857 82.813354,307.423706 72.393303,318.087189 
	C56.247200,334.610474 48.238796,355.117096 42.075581,376.640717 
	C39.428192,385.886078 37.296661,395.282166 35.047413,404.637848 
	C30.987839,421.523468 32.809040,437.421021 43.863647,451.385437 
	C56.000141,466.716553 71.785187,477.429657 89.560738,484.978668 
	C99.139038,489.046448 109.295464,490.430298 119.596664,485.903259 
	C128.507935,481.987030 135.648834,475.952515 142.186737,469.036499 
	C150.075974,460.690918 157.532440,451.991638 162.785858,441.652405 
	C168.195831,431.005035 168.435074,419.590332 167.653824,407.149200 
M98.902580,76.605621 
	C93.051086,67.902527 85.607498,60.864681 76.529938,55.637501 
	C70.071030,51.918232 66.289101,53.662331 63.851830,60.568604 
	C61.257225,67.920692 61.570560,75.530708 62.608398,82.806633 
	C65.944801,106.196999 65.526031,129.675262 64.534286,153.088104 
	C63.352161,180.995544 61.038898,208.863678 58.728706,236.708420 
	C58.181656,243.301987 57.811405,249.943069 57.021450,256.550964 
	C55.783527,266.906067 54.337540,277.245483 53.268219,287.623688 
	C52.062931,299.321503 49.796043,310.851135 47.985302,322.453827 
	C47.123985,327.972900 47.337482,333.659729 47.064091,339.270569 
	C48.993137,338.173584 50.057140,337.064270 50.681049,335.746582 
	C56.140900,324.215363 64.194344,314.899963 74.392166,307.301514 
	C86.695786,298.134033 103.429985,298.043335 115.825340,305.146545 
	C126.138145,311.056305 134.970413,318.787964 142.647156,327.963837 
	C147.733734,334.043762 151.870560,340.705048 156.109421,347.844696 
	C157.794876,341.662994 155.268875,336.494720 154.667099,331.134491 
	C153.298523,318.943573 152.151810,306.724945 150.587753,294.559692 
	C149.407654,285.380890 147.539383,276.291321 146.320618,267.116455 
	C145.468964,260.704926 145.754684,254.109009 144.537079,247.787140 
	C142.652298,238.001572 141.140442,228.166611 139.422974,218.361847 
	C138.105362,210.839890 137.396484,203.234436 135.958542,195.757401 
	C133.803314,184.550659 130.478363,173.531479 128.919220,162.257111 
	C127.043938,148.696686 122.665489,135.831573 118.917946,122.863380 
	C114.318985,106.948944 107.576424,91.682861 98.902580,76.605621 
z"/>
</svg>