<svg version="1.1" id="Layer_1" xmlns="http://www.w3.org/2000/svg" xmlns:xlink="http://www.w3.org/1999/xlink" x="0px" y="0px"
	 width="100%" viewBox="0 0 208 528" enable-background="new 0 0 208 528" xml:space="preserve">
<path fill="#000000" opacity="1.000000" stroke="none" 
	d="
M162.050507,497.047333 
	C154.144318,504.748505 146.205307,511.877777 136.436462,516.483643 
	C126.310562,521.257874 115.905396,522.334351 104.901306,519.212830 
	C86.867256,514.097168 71.323090,504.251617 55.831074,494.279694 
	C45.574802,487.677917 36.697018,479.618958 29.359032,469.672882 
	C18.695963,455.219940 16.146620,439.049042 18.279657,421.925720 
	C19.961029,408.428223 24.478994,395.562988 28.266823,382.509857 
	C32.197815,368.963470 39.656479,356.467712 41.025558,342.288818 
	C42.056274,331.614197 45.436954,321.537018 47.177742,311.132812 
	C48.715145,301.944183 48.400742,292.382446 49.746601,283.083038 
	C53.852470,254.713058 55.579945,226.140945 55.178082,197.560104 
	C54.851170,174.309998 54.250343,151.038300 52.493969,127.771088 
	C51.105991,109.384163 49.267944,90.982445 48.521706,72.503319 
	C47.974640,58.956299 48.147430,45.579777 49.818939,32.200634 
	C50.583469,26.081163 52.670490,20.259684 55.443226,14.698616 
	C58.889908,7.785869 64.931953,6.267478 71.591293,10.338428 
	C77.674034,14.056890 81.521255,19.841785 85.121582,25.465136 
	C94.274139,39.760536 100.842918,55.282963 106.359077,71.420174 
	C110.846085,84.546631 115.278023,97.760880 119.266388,110.981781 
	C123.417328,124.741562 128.335007,138.347626 131.354202,152.489914 
	C133.074234,160.546753 136.350204,168.271179 138.073868,176.327530 
	C141.058029,190.275360 147.075867,203.419571 148.573044,217.769470 
	C149.066544,222.499283 151.023209,227.065002 152.265549,231.713882 
	C154.358780,239.546829 156.611298,247.268967 157.314011,255.421402 
	C157.737457,260.333740 159.543091,265.096649 160.735672,269.876099 
	C163.103500,279.365448 164.218719,289.045776 166.333664,298.547882 
	C167.158066,302.251740 167.748688,306.073395 169.121689,309.576508 
	C172.624893,318.514679 172.592743,328.060394 174.185715,337.308075 
	C175.018707,342.144012 173.986130,347.276611 176.386017,351.948700 
	C176.814713,352.783295 177.032104,354.020569 176.753387,354.879181 
	C173.701126,364.281677 179.465088,372.247162 181.138672,380.818939 
	C183.550781,393.173340 187.700119,405.124298 189.398605,417.729248 
	C190.356918,424.841095 190.646225,431.942902 191.411179,439.021881 
	C193.061691,454.296082 186.432251,466.459259 178.044342,478.129852 
	C173.283051,484.754517 168.109909,491.047607 162.050507,497.047333 
M25.359213,426.927307 
	C23.898464,445.350769 28.671333,461.771515 42.401909,474.518036 
	C61.143139,491.916199 82.814690,504.913544 107.321854,512.176086 
	C116.375412,514.859070 126.323463,514.116089 135.368408,508.910065 
	C151.820374,499.440796 163.901138,485.624146 174.573639,470.430969 
	C180.751892,461.635803 184.906387,452.135406 183.966736,440.709106 
	C183.204895,431.445007 182.789703,422.262878 181.053131,413.024902 
	C177.643372,394.885956 173.431473,376.935608 165.916611,360.183105 
	C156.486206,339.160400 144.053177,319.832092 126.027969,304.862427 
	C117.793953,298.024231 108.104942,293.650665 97.371239,296.644012 
	C86.935089,299.554382 78.714310,306.717377 71.415138,314.616486 
	C55.037418,332.340271 45.007717,353.757690 37.762699,376.312836 
	C32.557110,392.518829 26.261522,408.636108 25.359213,426.927307 
M49.908623,321.336853 
	C49.139736,324.766205 47.839981,328.151062 49.348038,332.204803 
	C50.075134,331.910461 50.220638,331.221222 50.555672,330.641479 
	C56.859268,319.733948 64.871468,310.172943 74.378899,301.997711 
	C82.890793,294.678467 92.171036,288.494873 104.124100,288.734406 
	C116.933884,288.991058 126.922188,295.564148 135.686386,303.965454 
	C148.124161,315.888245 158.322800,329.603607 166.131500,345.030060 
	C167.109467,346.962097 168.275665,348.798828 169.562744,351.042480 
	C170.954208,348.687347 170.413147,347.052795 170.287430,345.415649 
	C169.347458,333.176514 166.756104,321.233063 163.526306,309.442749 
	C161.809998,303.177399 161.066330,296.794708 160.076828,290.429077 
	C158.450470,279.966370 154.857071,269.983948 152.566849,259.681000 
	C150.230377,249.169983 148.303207,238.521637 145.163956,228.249054 
	C142.264404,218.760788 140.886932,208.946030 137.847595,199.499802 
	C135.173767,191.189621 134.054062,182.354965 131.106369,174.162720 
	C125.937759,159.798141 123.443260,144.688644 117.945412,130.406525 
	C113.910744,119.925407 111.447044,108.850922 107.888519,98.172417 
	C102.862740,83.090935 98.029961,67.943169 91.862717,53.250031 
	C86.801590,41.192204 80.069000,30.181074 72.107132,19.928293 
	C67.735229,14.298437 62.350040,15.057302 60.394989,21.196733 
	C57.406090,30.582758 55.801102,40.230888 55.121975,50.066792 
	C53.943951,67.128250 56.510956,84.027321 57.962746,100.890228 
	C60.424328,129.482178 60.569889,158.105011 60.613075,186.699142 
	C60.640461,204.831360 60.372372,223.000488 60.186176,241.152481 
	C60.155464,244.146545 60.346939,247.215607 59.773426,250.119186 
	C56.811195,265.116425 56.294376,280.405701 54.129623,295.491486 
	C52.929214,303.856873 51.518494,312.192108 49.908623,321.336853 
z"/>
</svg>