<svg version="1.1" id="Layer_1" xmlns="http://www.w3.org/2000/svg" xmlns:xlink="http://www.w3.org/1999/xlink" x="0px" y="0px"
	 width="100%" viewBox="0 0 176 448" enable-background="new 0 0 176 448" xml:space="preserve">
<path fill="#000000" opacity="1.000000" stroke="none" 
	d="
M97.468658,449.000000 
	C89.317429,447.738098 81.585594,446.717590 73.962990,445.161835 
	C59.923256,442.296356 47.055779,436.988861 39.402107,423.976379 
	C34.664566,415.921814 32.726860,406.886780 31.620045,397.460297 
	C29.512873,379.513947 29.074394,361.558746 29.976185,343.599152 
	C30.573755,331.698303 32.997555,320.067535 36.699409,308.553436 
	C38.920448,301.645233 40.805004,294.086426 40.949177,286.747833 
	C41.187538,274.614899 43.806580,262.965088 46.000202,251.189713 
	C46.274052,249.719681 46.714603,248.224640 46.657421,246.757568 
	C46.001125,229.918793 48.688751,213.249710 49.211655,196.449142 
	C49.865700,175.434998 48.902679,154.493149 48.555882,133.531052 
	C48.397480,123.956543 46.717182,114.349365 45.077301,104.869415 
	C41.793655,85.887123 44.369942,67.441711 49.427525,49.184410 
	C50.352268,45.846188 52.312084,42.863655 55.081131,40.511513 
	C59.089157,37.106930 62.277885,37.023830 66.777542,39.909348 
	C75.605125,45.570263 80.327736,54.496975 84.962685,63.259834 
	C92.163399,76.873558 98.508247,90.947746 103.846954,105.401543 
	C109.300140,120.165291 113.671440,135.273849 117.347809,150.607574 
	C119.979103,161.582397 120.942101,172.798828 123.051437,183.743668 
	C124.699486,192.295013 125.016449,201.110641 127.505455,209.666214 
	C129.084488,215.093933 130.483002,221.080505 130.894226,227.040009 
	C131.294113,232.834915 133.469360,238.270218 135.802032,243.547607 
	C137.496078,247.380173 137.875305,251.617142 138.657562,255.519547 
	C140.489960,264.660858 144.504593,273.023193 146.615723,281.975525 
	C147.903519,287.436462 148.982956,293.026794 149.822113,298.514374 
	C151.395432,308.802979 155.757446,318.181000 157.972214,328.235229 
	C160.016052,337.513428 161.376923,346.872772 163.045456,356.195740 
	C165.893784,372.110962 165.481659,388.323792 167.524719,404.326172 
	C168.659714,413.216156 168.882309,422.242126 165.904678,431.022552 
	C163.293320,438.722961 158.384567,443.469696 150.342148,445.539825 
	C144.830246,446.958588 139.243729,447.602814 133.349335,448.817505 
	C121.312439,449.000000 109.624878,449.000000 97.468658,449.000000 
M110.655594,442.732635 
	C122.095032,443.906555 133.184464,441.027161 144.353851,439.523834 
	C155.266174,438.055054 159.733383,432.089722 159.904419,421.104248 
	C160.301926,395.571716 157.654633,370.271362 153.681793,345.119507 
	C152.858109,339.904846 152.400620,334.552185 151.003555,329.451263 
	C147.389313,316.255035 142.013718,303.768402 134.644958,292.217041 
	C125.856575,278.440338 115.579979,266.609711 97.868065,264.558899 
	C84.696571,263.033783 72.834129,266.026642 63.535839,275.574066 
	C50.763546,288.688568 44.455746,305.217438 40.266525,322.746246 
	C36.662941,337.824585 37.173367,353.114868 37.064922,368.414917 
	C36.954765,383.956177 38.565762,399.214020 42.970661,414.160889 
	C45.421741,422.477997 50.475029,428.361725 58.268894,432.139771 
	C74.537071,440.025665 92.416771,439.906067 110.655594,442.732635 
M104.378380,128.092682 
	C100.297112,117.577812 96.670586,106.903801 92.435913,96.428230 
	C87.134537,83.313889 81.030525,70.672012 74.129234,58.385639 
	C71.850128,54.328159 68.770081,50.757462 65.210655,47.687984 
	C62.863708,45.664078 60.270287,45.120342 58.352379,47.985100 
	C56.713139,50.433617 54.984089,53.165676 54.496395,55.980515 
	C52.626701,66.771790 51.065193,77.571335 51.051548,88.638741 
	C51.032822,103.828140 53.588890,118.781731 55.078636,133.758148 
	C57.312702,156.217163 58.193306,178.516998 55.628094,200.848877 
	C54.545280,210.275482 54.546188,219.718689 53.610119,229.133408 
	C52.562538,239.669708 51.228718,250.151855 49.751747,260.626068 
	C48.605686,268.753601 46.390137,276.748993 46.361660,285.135376 
	C46.877399,285.030151 47.101002,285.051086 47.160992,284.961945 
	C47.716114,284.136963 48.218639,283.276245 48.781738,282.457031 
	C58.257908,268.670563 69.561775,258.408752 87.727043,257.366333 
	C105.250450,256.360779 119.130035,262.027466 130.567032,275.073090 
	C134.981934,280.108948 138.649994,285.702515 142.922775,290.859253 
	C141.274109,281.574829 138.000961,272.945526 135.143463,264.161346 
	C131.371704,252.566696 128.123138,240.784531 125.771957,228.724091 
	C124.424728,221.813461 122.589096,214.851501 120.965973,207.940903 
	C117.102768,191.492935 116.280853,174.482651 112.279747,157.994720 
	C111.225960,153.652252 109.332550,149.598785 108.684982,145.097427 
	C107.891396,139.581024 106.141121,134.202240 104.378380,128.092682 
z"/>
</svg>