<svg version="1.1" id="Layer_1" xmlns="http://www.w3.org/2000/svg" xmlns:xlink="http://www.w3.org/1999/xlink" x="0px" y="0px"
	 width="100%" viewBox="0 0 194 518" enable-background="new 0 0 194 518" xml:space="preserve">
<path fill="none" opacity="1.000000" stroke="#000000" stroke-linecap="round" stroke-linejoin="round" stroke-width="4.000000"
	d="
M159.500000,349.000000 
	C162.113953,346.434967 160.714600,343.198395 160.341461,340.522095 
	C159.518250,334.617645 158.174774,328.728119 156.417191,323.025513 
	C153.990204,315.150970 153.133087,307.005676 151.536667,298.992706 
	C149.550461,289.023163 147.938187,278.978546 145.900024,269.020477 
	C145.547562,267.298462 145.789719,265.652802 145.493805,264.001099 
	C145.256226,262.674988 145.979843,261.280457 145.013458,259.989929 
	C140.683945,254.208405 141.152481,247.011292 139.679337,240.459671 
	C137.918976,232.630646 137.235153,224.520081 136.626358,216.490417 
	C136.371933,213.134583 135.259644,210.089127 134.331848,207.051361 
	C133.362350,203.877014 132.718384,200.644058 132.626694,197.496307 
	C132.395798,189.569321 130.718613,181.844299 129.862030,174.015091 
	C129.251450,168.434433 127.109657,163.063477 125.872292,157.528549 
	C124.417717,151.022003 123.380814,144.314438 121.273232,138.076614 
	C118.529236,129.955200 117.339798,121.487183 114.233643,113.410149 
	C109.664696,101.529396 105.372643,89.513260 99.861816,78.066528 
	C94.630577,67.200531 90.289879,55.819744 83.047935,45.964771 
	C80.981842,43.153183 78.872566,40.567501 76.047699,38.436764 
	C72.839600,36.016964 70.003883,36.368679 67.542755,39.039398 
	C63.137695,43.819580 60.936882,49.811405 59.544025,56.009892 
	C55.622276,73.462395 57.052334,91.361656 55.357792,108.986328 
	C53.164967,131.793503 53.472290,154.679886 52.078712,177.504807 
	C51.029945,194.682236 48.884651,211.756683 48.234135,228.989960 
	C47.779202,241.041992 44.906624,253.011856 42.967915,264.994812 
	C42.050678,270.664154 42.291996,276.366180 42.622696,281.992798 
	C43.061523,289.458923 41.347664,296.539368 39.304512,303.442139 
	C37.922668,308.110718 36.435772,312.559235 36.416092,317.499664 
	C36.404675,320.365814 34.843304,322.918732 33.625145,325.557770 
	C32.060860,328.946686 29.968983,332.687988 33.000000,336.500000 
"/>
<path fill="none" opacity="1.000000" stroke="#000000" stroke-linecap="round" stroke-linejoin="round" stroke-width="5.000000"
	d="
M29.500000,343.500000 
	C32.766502,344.580048 30.898455,347.088013 30.392378,348.460297 
	C24.477287,364.499573 21.479496,381.129272 18.749096,397.959290 
	C16.521542,411.689758 17.218529,425.322937 17.086983,439.000824 
	C16.968880,451.281067 19.555037,463.262146 23.051630,474.984589 
	C25.808590,484.227448 33.228939,488.932861 41.508293,492.480652 
	C51.710728,496.852448 62.366241,498.325409 73.494553,498.673920 
	C93.828629,499.310730 114.161011,499.708344 134.499527,500.029510 
	C142.718552,500.159271 150.841751,499.053558 158.993210,498.413452 
	C166.614716,497.814941 171.970718,492.052216 173.011459,484.501587 
	C175.298218,467.910828 176.754837,451.289795 176.595718,434.499084 
	C176.472107,421.453461 174.522110,408.695374 171.931458,396.014008 
	C169.942307,386.277039 167.801605,376.519135 164.820679,367.056488 
	C163.090424,361.563934 162.540741,355.257935 159.650818,350.722504 
	C155.738770,344.582886 152.731812,337.955261 148.693985,331.871246 
	C141.949936,321.709656 134.417740,312.733917 123.491936,307.015411 
	C119.071785,304.701904 114.702728,302.443420 109.509598,301.907043 
	C102.013924,301.132843 94.709679,299.327209 86.991203,299.876343 
	C73.037086,300.869080 61.366943,306.119690 50.879383,315.363159 
	C43.504124,321.863495 39.188694,330.594757 32.591503,337.586334 
	C31.305864,338.948822 32.285179,341.696289 31.000000,343.500000 
"/>
</svg>