<?xml version="1.0" encoding="UTF-8" standalone="no"?>
<svg
   version="1.1"
   id="Layer_1"
   x="0px"
   y="0px"
   width="100%"
   viewBox="0 0 194 518"
   enable-background="new 0 0 194 518"
   xml:space="preserve"
   sodipodi:docname="9.svg"
   inkscape:version="1.4.3 (0d15f75, 2025-12-25)"
   xmlns:inkscape="http://www.inkscape.org/namespaces/inkscape"
   xmlns:sodipodi="http://sodipodi.sourceforge.net/DTD/sodipodi-0.dtd"
   xmlns="http://www.w3.org/2000/svg"
   xmlns:svg="http://www.w3.org/2000/svg"><defs
   id="defs2" /><sodipodi:namedview
   id="namedview2"
   pagecolor="#ffffff"
   bordercolor="#000000"
   borderopacity="0.25"
   inkscape:showpageshadow="2"
   inkscape:pageopacity="0.0"
   inkscape:pagecheckerboard="0"
   inkscape:deskcolor="#d1d1d1"
   inkscape:zoom="1.492278"
   inkscape:cx="96.831824"
   inkscape:cy="259"
   inkscape:window-width="1920"
   inkscape:window-height="991"
   inkscape:window-x="-9"
   inkscape:window-y="-9"
   inkscape:window-maximized="1"
   inkscape:current-layer="Layer_1" />
<path
   fill="none"
   opacity="1"
   stroke="#000000"
   stroke-linecap="round"
   stroke-linejoin="round"
   stroke-width="4"
   d="m 34.184597,349 c -2.613953,-2.56503 -1.2146,-5.80161 -0.841461,-8.47791 0.823211,-5.90445 2.166687,-11.79397 3.92427,-17.49658 2.426987,-7.87454 3.284104,-16.01983 4.880524,-24.0328 1.986206,-9.96955 3.59848,-20.01416 5.636643,-29.97223 0.352462,-1.72202 0.110305,-3.36768 0.406219,-5.01938 0.237579,-1.32611 -0.486038,-2.72064 0.480347,-4.01117 4.329513,-5.78153 3.860977,-12.97864 5.334121,-19.53026 1.760361,-7.82902 2.444184,-15.93959 3.052979,-23.96925 0.254425,-3.35584 1.366714,-6.40129 2.29451,-9.43906 0.969498,-3.17435 1.613464,-6.4073 1.705154,-9.55505 0.230896,-7.92699 1.908081,-15.65201 2.764664,-23.48122 0.61058,-5.58066 2.752373,-10.95161 3.989738,-16.48654 1.454575,-6.50655 2.491478,-13.21411 4.59906,-19.45194 2.743996,-8.12141 3.933434,-16.58943 7.039589,-24.66646 4.568947,-11.88075 8.861,-23.89689 14.371827,-35.343622 5.231239,-10.865997 9.571939,-22.246784 16.813879,-32.101757 2.06609,-2.811588 4.17537,-5.39727 7.00024,-7.528007 3.2081,-2.4198 6.04381,-2.068085 8.50494,0.602634 4.40506,4.780182 6.60587,10.772007 7.99873,16.970494 3.92175,17.452503 2.49169,35.351764 4.18623,52.976438 2.19283,22.80717 1.88551,45.69356 3.27908,68.51848 1.04877,17.17743 3.19407,34.25187 3.84458,51.48515 0.45493,12.05203 3.32751,24.0219 5.26622,36.00485 0.91724,5.66934 0.67592,11.37137 0.34522,16.99799 -0.43883,7.46612 1.27503,14.54657 3.31818,21.44934 1.38185,4.66858 2.86874,9.11709 2.88842,14.05752 0.0114,2.86615 1.57279,5.41907 2.79095,8.05811 1.56429,3.38892 3.65616,7.13022 0.62515,10.94223"
   id="path1" />
<path
   fill="none"
   opacity="1"
   stroke="#000000"
   stroke-linecap="round"
   stroke-linejoin="round"
   stroke-width="5"
   d="m 164.1846,343.5 c -3.26651,1.08005 -1.39846,3.58801 -0.89238,4.9603 5.91509,16.03927 8.91288,32.66897 11.64328,49.49899 2.22755,13.73047 1.53057,27.36365 1.66211,41.04153 0.11811,12.28025 -2.46805,24.26133 -5.96464,35.98377 -2.75696,9.24286 -10.17731,13.94827 -18.45667,17.49606 -10.20243,4.3718 -20.85794,5.84476 -31.98626,6.19327 -20.334072,0.63681 -40.666454,1.03442 -61.00497,1.35559 -8.219025,0.12976 -16.342224,-0.97595 -24.493683,-1.61606 -7.621506,-0.59851 -12.977508,-6.36123 -14.018249,-13.91186 -2.286759,-16.59076 -3.743378,-33.21179 -3.584259,-50.00251 0.123611,-13.04562 2.073608,-25.80371 4.66426,-38.48507 1.989151,-9.73697 4.129853,-19.49488 7.110779,-28.95752 1.730255,-5.49256 2.279938,-11.79856 5.169861,-16.33399 3.912048,-6.13961 6.919006,-12.76724 10.956833,-18.85125 6.744049,-10.16159 14.276245,-19.13733 25.202049,-24.85584 4.420151,-2.31351 8.789208,-4.57199 13.982338,-5.10837 7.495674,-0.7742 14.799919,-2.57983 22.518391,-2.0307 13.95412,0.99274 25.62426,6.24335 36.11182,15.48682 7.37526,6.50033 11.69069,15.2316 18.28788,22.22317 1.28564,1.36249 0.30633,4.10996 1.59151,5.91367"
   id="path2" />
</svg>
