<svg version="1.1" id="Layer_1" xmlns="http://www.w3.org/2000/svg" xmlns:xlink="http://www.w3.org/1999/xlink" x="0px" y="0px"
	 width="100%" viewBox="0 0 1091 960" enable-background="new 0 0 1091 960" xml:space="preserve">
<path id="vestibular" data-cara="vestibular" fill="none" opacity="1.000000" stroke="#000000" stroke-linecap="round" stroke-linejoin="round" stroke-width="9.000000"
	d="
M892.500000,36.000000 
	C875.422424,35.250702 858.466064,37.288815 841.511230,38.640865 
	C824.460205,40.000591 807.475952,42.317638 790.507385,44.555916 
	C776.138306,46.451317 761.837585,48.862171 747.498840,50.992023 
	C732.670837,53.194542 717.819214,55.241875 703.004028,57.526127 
	C688.652161,59.738941 674.348267,62.263905 659.995361,64.469734 
	C648.184875,66.284828 636.254883,67.414429 624.520935,69.611702 
	C611.424194,72.064163 597.972107,71.261673 584.997742,74.490921 
	C568.981873,78.477196 557.877380,87.939217 551.959106,103.484444 
	C549.488708,109.973587 548.550598,116.550285 548.407349,123.498093 
	C547.507629,167.165039 548.176208,210.833481 548.060059,254.500153 
	C548.026184,267.215698 548.383606,279.927887 553.451416,292.020355 
	C560.170715,308.053406 571.960815,317.582672 589.006836,320.459412 
	C601.897583,322.634888 615.041321,321.894196 628.004150,323.465698 
	C640.318115,324.958527 652.681213,326.046295 664.996399,327.529968 
	C680.984863,329.456146 696.795959,332.252441 712.540588,335.820862 
	C732.956116,340.447906 748.294067,351.347107 760.095886,368.433777 
	C774.315735,389.021240 787.828552,410.062866 801.428955,431.046051 
	C812.886658,448.723328 829.676819,457.715240 849.512207,461.942780 
	C867.283081,465.730316 885.301636,467.224915 903.500549,467.055908 
	C927.831726,466.829895 952.171143,467.288116 976.498657,466.912109 
	C997.329346,466.590149 1013.735657,457.613892 1024.428955,439.458191 
	C1029.630981,430.626099 1030.644897,420.462585 1031.999634,410.499969 
	C1034.663696,390.910767 1035.704102,371.170135 1037.492432,351.499329 
	C1037.552612,350.838135 1037.495605,350.166626 1037.500732,349.500000 
	C1037.666504,327.833344 1038.076172,306.164948 1037.923706,284.500549 
	C1037.800537,266.997894 1037.335449,249.482101 1036.402954,232.005173 
	C1035.521240,215.481079 1034.270142,198.950363 1032.401733,182.511169 
	C1029.276001,155.008270 1024.119263,127.843552 1012.383667,102.553970 
	C1001.547607,79.202744 985.842773,59.939766 961.997925,48.504272 
	C951.515686,43.477169 940.390503,40.473503 928.992493,38.544323 
	C917.094238,36.530476 905.089600,35.542831 893.000000,36.000000 
"/>
<path id="mesial" data-cara="mesial" fill="none" opacity="1.000000" stroke="#000000" stroke-linecap="round" stroke-linejoin="round" stroke-width="9.000000"
	d="
M187.500000,487.000000 
	C196.616837,486.948486 205.553391,488.719269 214.480133,490.126099 
	C224.658920,491.730255 234.511581,494.559326 244.085098,498.808258 
	C253.663986,503.059570 261.284210,509.242645 268.023895,516.979187 
	C277.095734,527.392883 283.641998,539.575623 291.906433,550.570312 
	C304.627075,567.493408 315.663544,585.743774 330.571838,600.929443 
	C342.579346,613.160400 357.724823,619.608032 374.496887,622.517883 
	C390.583191,625.308777 406.824524,626.902649 422.987244,629.094116 
	C436.289948,630.897766 449.709778,631.375671 462.982178,633.134460 
	C473.836548,634.572815 484.869904,634.300232 495.546967,637.859131 
	C512.225098,643.418335 520.831848,655.499817 525.534302,671.489929 
	C528.667847,682.145081 529.097656,692.994019 529.058533,704.000183 
	C528.912231,745.166382 529.056030,786.333435 528.966614,827.499939 
	C528.938965,840.243347 526.264221,852.398071 517.932617,862.444153 
	C510.083710,871.908142 500.237152,878.038330 487.506134,879.075439 
	C476.346100,879.984680 465.178741,880.510925 454.008423,881.147644 
	C442.137634,881.824463 430.362274,884.155457 418.491577,884.857788 
	C407.368530,885.515930 396.505310,887.730957 385.515289,889.120972 
	C372.450287,890.773499 359.498230,893.322815 346.500488,895.502747 
	C331.665131,897.990845 316.767365,900.170471 302.024506,903.122437 
	C293.039062,904.921570 283.967621,906.227295 274.959412,907.761780 
	C265.690674,909.340637 256.357452,910.825012 247.003265,912.025452 
	C234.823288,913.588501 222.702362,915.685303 210.492233,916.923401 
	C188.230453,919.180542 165.892609,921.208740 143.508331,919.861450 
	C129.628906,919.026062 115.607430,917.579041 102.542725,912.392395 
	C87.558105,906.443542 74.407578,897.700745 63.944401,885.045959 
	C47.655056,865.344788 39.710979,842.372375 35.931202,817.510437 
	C34.213875,806.214539 33.882839,794.827576 32.731022,783.527405 
	C30.902821,765.591309 32.650112,747.808838 33.211498,730.006653 
	C33.811142,710.991455 36.244980,692.050171 37.128849,673.005981 
	C37.818676,658.142822 40.273846,643.355347 40.813766,628.493225 
	C41.270885,615.910339 43.690281,603.576172 44.160587,591.005981 
	C44.517159,581.475708 46.432751,572.010803 47.464943,562.496216 
	C48.149837,556.182922 48.333904,549.814880 49.035282,543.503906 
	C50.409458,531.139221 51.517849,518.798157 58.909912,507.938690 
	C67.000122,496.053619 78.014923,489.491058 92.002808,487.519958 
	C99.136581,486.514648 106.332504,487.034088 113.500038,487.019348 
	C137.999939,486.968903 162.500000,487.000000 187.000000,487.000000 
"/>
<path id="distal" data-cara="distal" fill="none" opacity="1.000000" stroke="#000000" stroke-linecap="round" stroke-linejoin="round" stroke-width="9.000000"
	d="
M892.500000,487.000000 
	C921.666687,487.000000 950.834290,486.858246 979.999573,487.060486 
	C994.322632,487.159821 1007.401733,491.017273 1017.495483,502.004150 
	C1024.934692,510.101624 1029.215210,519.856262 1030.887329,530.517700 
	C1033.019165,544.111389 1033.777710,557.931030 1036.158813,571.472046 
	C1038.466187,584.593689 1038.363647,597.938660 1040.848999,611.028687 
	C1041.706543,615.545532 1041.562134,620.345520 1041.864258,625.008789 
	C1042.696899,637.860352 1044.155884,650.663208 1045.256714,663.477966 
	C1046.874146,682.306213 1048.207275,701.114380 1049.222290,719.988037 
	C1050.326050,740.512268 1050.406128,761.030090 1049.773682,781.492981 
	C1048.983765,807.050171 1043.745239,831.830750 1029.957153,853.973328 
	C1019.773804,870.327148 1006.209839,883.278137 989.528931,893.049377 
	C978.380798,899.579529 966.638855,904.367981 954.001282,907.006104 
	C945.891846,908.698975 937.827637,910.377686 929.515076,911.160156 
	C918.515625,912.195679 907.531006,913.344421 896.502808,912.926086 
	C880.984009,912.337280 865.470886,911.765015 849.975281,910.253479 
	C842.005005,909.476135 833.987610,908.649170 826.017273,907.831543 
	C813.980713,906.596985 801.967285,904.882507 789.964966,903.258850 
	C781.666931,902.136353 773.299683,901.097595 765.025940,899.830444 
	C755.013428,898.297180 744.945740,896.985352 734.945435,895.329590 
	C726.889832,893.995850 718.758362,892.443726 710.509766,891.861633 
	C703.462524,891.364258 696.522278,889.504395 689.494568,888.539429 
	C679.849548,887.215027 670.166016,886.172058 660.500183,884.998352 
	C652.332520,884.006470 644.189331,882.471497 635.994812,882.120544 
	C622.819519,881.556335 609.736755,879.907288 596.500549,879.857971 
	C569.939636,879.758789 550.841125,862.595093 548.024231,835.497498 
	C547.679626,832.182678 547.524048,828.833435 547.521545,825.500000 
	C547.489197,781.500000 546.957520,737.489990 547.770203,693.505005 
	C548.090088,676.191040 553.338928,659.774414 566.456299,646.955261 
	C573.098022,640.464539 581.450256,637.536316 590.029968,636.191284 
	C606.928223,633.542114 623.984497,631.854370 641.004272,630.040283 
	C658.570618,628.167969 676.123901,626.150146 693.481201,622.899719 
	C704.524597,620.831665 715.581848,618.781921 726.060181,614.135742 
	C736.010986,609.723450 744.665283,603.731689 751.422852,595.437134 
	C771.139587,571.235962 789.801147,546.217285 807.464050,520.475342 
	C816.853577,506.791016 830.236328,498.834900 845.542664,494.138977 
	C860.598999,489.519745 876.206909,487.386475 892.000000,487.000000 
"/>
<path id="lingual" data-cara="lingual" fill="none" opacity="1.000000" stroke="#000000" stroke-linecap="round" stroke-linejoin="round" stroke-width="9.000000"
	d="
M175.000000,36.500000 
	C170.000000,36.833336 165.000626,37.176498 159.999893,37.498276 
	C140.009415,38.784565 120.588295,42.264584 102.480766,51.462135 
	C85.917198,59.875454 72.105217,71.324966 62.016853,87.010841 
	C50.935349,104.240906 45.453873,123.331207 42.377579,143.481308 
	C36.244724,183.652313 35.918678,224.061096 36.694534,264.496277 
	C36.933998,276.976318 37.562973,289.520660 38.556213,301.995514 
	C40.004021,320.179596 42.223824,338.308044 43.402779,356.506287 
	C44.932964,380.126007 47.242554,403.649261 51.080521,426.986755 
	C54.427555,447.338989 68.242455,462.389984 88.982101,466.100037 
	C92.680824,466.761688 96.306381,466.993927 100.000000,466.995087 
	C128.000000,467.004089 156.000122,467.051361 183.999954,466.983490 
	C205.778534,466.930664 226.896652,462.619690 247.454163,455.860596 
	C257.835022,452.447479 266.153473,445.275391 272.400879,436.429993 
	C285.066162,418.497803 297.233154,400.211304 309.474579,381.982910 
	C316.582336,371.398926 323.500580,360.633667 333.048462,352.053925 
	C344.223938,342.011658 358.132629,337.765900 372.508911,335.047180 
	C393.202423,331.133789 414.055115,328.296967 434.986694,325.884460 
	C451.298615,324.004425 467.693970,323.180145 483.984222,321.359009 
	C502.963837,319.237183 516.524109,309.129761 523.475769,290.990723 
	C527.167542,281.357819 528.516357,271.290985 528.510803,261.000000 
	C528.485962,215.000000 528.790283,168.997375 528.375427,123.001122 
	C528.173157,100.570641 516.409790,81.364212 492.968018,75.120064 
	C486.847015,73.489616 480.331024,73.350464 474.000488,72.496361 
	C461.503082,70.810265 448.956116,69.594978 436.464111,67.742043 
	C423.356110,65.797737 410.167603,64.157661 397.004364,62.466019 
	C386.649261,61.135258 376.336395,59.478489 365.999298,58.004917 
	C349.501923,55.653191 332.992279,53.386299 316.502319,50.983986 
	C302.157776,48.894222 287.877350,46.269814 273.480743,44.673767 
	C266.669495,43.918652 259.857574,42.965561 253.004654,42.439358 
	C245.650696,41.874683 238.287186,41.108200 231.018768,39.888149 
	C227.180588,39.243885 223.263184,39.075859 219.478561,38.746189 
	C204.864700,37.473209 190.166672,37.166668 175.500000,36.500004 
"/>
<path id="oclusal" data-cara="oclusal" fill="none" opacity="1.000000" stroke="#000000" stroke-linecap="round" stroke-linejoin="round" stroke-width="9.000000"
	d="
M503.000000,341.500000 
	C495.500000,342.000000 487.993805,342.421906 480.501221,343.015442 
	C462.164124,344.468109 443.797577,345.663971 425.511719,347.610229 
	C411.788391,349.070862 398.061737,350.790894 384.501129,353.505615 
	C368.481537,356.712555 354.728241,364.368469 342.498657,374.998444 
	C330.479126,385.445923 321.874054,398.388947 316.135193,413.052917 
	C312.218445,423.061066 311.043854,433.854645 309.427795,444.489014 
	C306.977539,460.612762 306.746918,476.860870 307.714722,492.987122 
	C308.931061,513.254639 310.944458,533.627747 321.017548,551.990356 
	C334.848755,577.203857 355.634766,593.912537 383.549438,600.799561 
	C394.581360,603.521301 406.146545,604.178467 417.504639,605.458740 
	C435.153717,607.448120 452.818298,609.332947 470.505981,610.933655 
	C480.139038,611.805420 489.829834,612.085876 499.500702,612.482849 
	C521.993286,613.406189 544.504089,613.205627 566.998779,612.907532 
	C589.888794,612.604309 612.732849,610.892029 635.493652,608.441040 
	C652.858948,606.571106 670.200134,604.400330 687.489624,601.927307 
	C701.745911,599.888184 714.707886,594.474182 726.544983,586.063293 
	C744.073181,573.608521 756.178528,557.154114 762.858521,536.953247 
	C767.060059,524.247498 768.539734,510.895111 769.596619,497.507629 
	C770.691406,483.640015 770.609497,469.820801 769.467651,456.002686 
	C767.248535,429.148651 761.604004,403.263672 742.876099,382.612396 
	C727.948364,366.151611 709.286194,355.246857 686.984985,352.106506 
	C665.721313,349.112244 644.362549,346.708954 622.993652,344.562927 
	C583.252014,340.571716 543.358765,341.488129 503.500000,341.500000 
"/>
</svg>